<svg width="523" height="364" viewBox="0 0 523 364" fill="none" xmlns="http://www.w3.org/2000/svg">
<g opacity="0.4">
<path d="M447.797 93.0398C466.275 93.0398 481.254 78.0793 481.254 59.6244C481.254 41.1696 466.275 26.209 447.797 26.209C429.319 26.209 414.34 41.1696 414.34 59.6244C414.34 78.0793 429.319 93.0398 447.797 93.0398Z" fill="white"/>
<path d="M447.797 93.0398C459.537 93.0398 469.054 78.0793 469.054 59.6244C469.054 41.1696 459.537 26.209 447.797 26.209C436.058 26.209 426.541 41.1696 426.541 59.6244C426.541 78.0793 436.058 93.0398 447.797 93.0398Z" fill="white"/>
<path d="M447.797 93.0398C466.275 93.0398 481.254 78.0793 481.254 59.6244C481.254 41.1696 466.275 26.209 447.797 26.209C429.319 26.209 414.34 41.1696 414.34 59.6244C414.34 78.0793 429.319 93.0398 447.797 93.0398Z" stroke="#0062FF" stroke-width="2" stroke-miterlimit="10"/>
<path d="M447.798 26.209V93.0399" stroke="#0062FF" stroke-width="2" stroke-miterlimit="10"/>
<path d="M447.797 93.0398C459.537 93.0398 469.054 78.0793 469.054 59.6244C469.054 41.1696 459.537 26.209 447.797 26.209C436.058 26.209 426.541 41.1696 426.541 59.6244C426.541 78.0793 436.058 93.0398 447.797 93.0398Z" stroke="#0062FF" stroke-width="2" stroke-miterlimit="10"/>
<path d="M414.34 59.625H481.254" stroke="#0062FF" stroke-width="2" stroke-miterlimit="10"/>
<path d="M418.655 43.1719H477.084" stroke="#0062FF" stroke-width="2" stroke-miterlimit="10"/>
<path d="M418.583 76.0918H447.798H477.012" stroke="#0062FF" stroke-width="2" stroke-miterlimit="10"/>
<path d="M479.439 206.877C496.996 206.877 511.229 192.671 511.229 175.147C511.229 157.624 496.996 143.418 479.439 143.418C461.881 143.418 447.648 157.624 447.648 175.147C447.648 192.671 461.881 206.877 479.439 206.877Z" fill="#0142D3"/>
<path d="M501.505 198.02C501.444 198.02 501.322 198.02 501.262 197.959C501.14 197.838 501.14 197.656 501.262 197.534C507.218 191.589 510.501 183.702 510.501 175.33C510.501 166.957 507.218 159.01 501.262 153.125C495.305 147.18 487.403 143.904 479.015 143.904C470.626 143.904 462.664 147.18 456.768 153.125C456.646 153.246 456.464 153.246 456.342 153.125C456.221 153.004 456.221 152.822 456.342 152.7C462.421 146.634 470.444 143.297 479.075 143.297C487.646 143.297 495.73 146.634 501.809 152.7C507.887 158.767 511.23 166.775 511.23 175.39C511.23 184.005 507.887 192.013 501.809 198.08C501.687 197.959 501.566 198.02 501.505 198.02Z" fill="#0062FF"/>
<path d="M479.438 199.294C492.799 199.294 503.63 188.483 503.63 175.148C503.63 161.812 492.799 151.002 479.438 151.002C466.077 151.002 455.246 161.812 455.246 175.148C455.246 188.483 466.077 199.294 479.438 199.294Z" fill="white"/>
<path d="M479.439 199.596C465.945 199.596 454.943 188.615 454.943 175.147C454.943 161.678 465.945 150.697 479.439 150.697C479.622 150.697 479.743 150.819 479.743 151.001C479.743 151.183 479.622 151.304 479.439 151.304C466.249 151.304 455.551 161.982 455.551 175.147C455.551 188.312 466.249 198.989 479.439 198.989C479.622 198.989 479.743 199.11 479.743 199.292C479.743 199.474 479.561 199.596 479.439 199.596Z" fill="#0062FF"/>
<path d="M485.699 179.758H479.134C477.797 179.758 476.703 178.666 476.703 177.331V168.231C476.703 167.078 477.676 166.107 478.831 166.107C479.985 166.107 480.958 167.078 480.958 168.231V175.511H485.76C486.915 175.511 487.887 176.482 487.887 177.634C487.887 178.787 486.854 179.758 485.699 179.758Z" fill="#A56EFF"/>
<path fill-rule="evenodd" clip-rule="evenodd" d="M100.293 183.145C105.065 181.81 109.602 179.914 113.833 177.528L125.401 189.1C126.997 190.694 129.6 190.694 131.192 189.1L148.912 171.37C150.505 169.777 150.505 167.173 148.912 165.58L137.345 154.004C139.726 149.774 141.624 145.236 142.96 140.462H159.315C161.568 140.462 163.411 138.617 163.411 136.364V111.292C163.411 109.038 161.568 107.197 159.315 107.197H142.96C141.624 102.423 139.729 97.8815 137.348 93.6518L148.916 82.0796C150.508 80.4862 150.508 77.8789 148.916 76.2855L131.196 58.5554C129.603 56.962 126.997 56.962 125.404 58.5554L113.833 70.1276C109.605 67.7456 105.068 65.8464 100.296 64.5105V48.1485C100.296 45.8952 98.4556 44.0508 96.2033 44.0508H71.1406C68.8882 44.0508 67.0445 45.8952 67.0445 48.1485V64.5105C62.2727 65.8464 57.7357 67.7423 53.5076 70.1276L41.94 58.5554C40.3473 56.962 37.7409 56.962 36.1482 58.5554L18.4283 76.2822C16.8356 77.8756 16.8356 80.4798 18.4283 82.0764L29.9959 93.6486C27.6149 97.8783 25.7164 102.42 24.3811 107.194H8.02874C5.77636 107.194 3.93262 109.038 3.93262 111.292V136.364C3.93262 138.617 5.77636 140.462 8.02874 140.462H24.3843C25.7196 145.236 27.6149 149.778 29.9959 154.007L18.4283 165.58C16.8356 167.173 16.8356 169.78 18.4283 171.374L36.1514 189.1C37.7442 190.694 40.3473 190.694 41.94 189.1L53.5109 177.528C57.7389 179.91 62.2759 181.81 67.0477 183.145V199.507C67.0477 201.761 68.8914 203.605 71.1438 203.605H96.2033C98.4556 203.605 100.299 201.761 100.299 199.507V183.145H100.293ZM83.6671 155.916C65.9537 155.916 51.5963 141.553 51.5963 123.833C51.5963 106.112 65.9569 91.7494 83.6671 91.7494C101.377 91.7494 115.738 106.112 115.738 123.833C115.738 141.55 101.377 155.916 83.6671 155.916Z" fill="#FF8D64"/>
<path fill-rule="evenodd" clip-rule="evenodd" d="M100.293 183.145C105.065 181.81 109.602 179.914 113.833 177.528L125.401 189.1C126.997 190.694 129.6 190.694 131.192 189.1L148.912 171.37C150.505 169.777 150.505 167.173 148.912 165.58L137.345 154.004C139.726 149.774 141.624 145.236 142.96 140.462H159.315C161.568 140.462 163.411 138.617 163.411 136.364V111.292C163.411 109.038 161.568 107.197 159.315 107.197H142.96C141.624 102.423 139.729 97.8815 137.348 93.6518L148.916 82.0796C150.508 80.4862 150.508 77.8789 148.916 76.2855L131.196 58.5554C129.603 56.962 126.997 56.962 125.404 58.5554L113.833 70.1276C109.605 67.7456 105.068 65.8464 100.296 64.5105V48.1485C100.296 45.8952 98.4556 44.0508 96.2033 44.0508H71.1406C68.8882 44.0508 67.0445 45.8952 67.0445 48.1485V64.5105C62.2727 65.8464 57.7357 67.7423 53.5076 70.1276L41.94 58.5554C40.3473 56.962 37.7409 56.962 36.1482 58.5554L18.4283 76.2822C16.8356 77.8756 16.8356 80.4798 18.4283 82.0764L29.9959 93.6486C27.6149 97.8783 25.7164 102.42 24.3811 107.194H8.02874C5.77636 107.194 3.93262 109.038 3.93262 111.292V136.364C3.93262 138.617 5.77636 140.462 8.02874 140.462H24.3843C25.7196 145.236 27.6149 149.778 29.9959 154.007L18.4283 165.58C16.8356 167.173 16.8356 169.78 18.4283 171.374L36.1514 189.1C37.7442 190.694 40.3473 190.694 41.94 189.1L53.5109 177.528C57.7389 179.91 62.2759 181.81 67.0477 183.145V199.507C67.0477 201.761 68.8914 203.605 71.1438 203.605H96.2033C98.4556 203.605 100.299 201.761 100.299 199.507V183.145H100.293ZM83.6671 155.916C65.9537 155.916 51.5963 141.553 51.5963 123.833C51.5963 106.112 65.9569 91.7494 83.6671 91.7494C101.377 91.7494 115.738 106.112 115.738 123.833C115.738 141.55 101.377 155.916 83.6671 155.916Z" fill="#A56EFF"/>
<path fill-rule="evenodd" clip-rule="evenodd" d="M83.6651 160.423C93.7655 160.423 102.91 156.328 109.529 149.707C116.148 143.085 120.241 133.937 120.241 123.833C120.241 113.728 116.145 104.58 109.529 97.9587C102.91 91.3373 93.7655 87.2427 83.6651 87.2427C73.5648 87.2427 64.4201 91.3373 57.8013 97.9587C51.1825 104.58 47.0896 113.728 47.0896 123.833C47.0896 133.937 51.1825 143.085 57.8013 149.707C64.4201 156.325 73.5648 160.423 83.6651 160.423ZM111.044 151.22C104.04 158.227 94.3575 162.563 83.6651 162.563C72.9727 162.563 63.2939 158.227 56.2857 151.22C49.2776 144.209 44.9434 134.526 44.9434 123.83C44.9434 113.133 49.2776 103.45 56.2857 96.4393C63.2907 89.4284 72.9727 85.0957 83.6651 85.0957C94.3575 85.0957 104.036 89.4316 111.044 96.4393C118.049 103.447 122.384 113.133 122.384 123.83C122.384 134.526 118.049 144.212 111.044 151.22Z" fill="#6929C4"/>
<path fill-rule="evenodd" clip-rule="evenodd" d="M83.6683 179.167C98.9427 179.167 112.772 172.974 122.779 162.96C132.79 152.946 138.981 139.114 138.981 123.833C138.981 108.553 132.79 94.7178 122.779 84.7068C112.769 74.6926 98.9395 68.4993 83.6683 68.4993C68.3939 68.4993 54.5643 74.6926 44.554 84.7068C34.547 94.721 28.3529 108.553 28.3529 123.833C28.3529 139.114 34.5438 152.949 44.554 162.96C54.5643 172.974 68.3939 179.167 83.6683 179.167ZM124.295 164.476C113.899 174.876 99.5316 181.311 83.6683 181.311C67.8019 181.311 53.4381 174.876 43.0385 164.476C32.6421 154.075 26.21 139.706 26.21 123.833C26.21 107.961 32.6421 93.5911 43.0385 83.1907C53.4349 72.7902 67.8019 66.3555 83.6683 66.3555C99.5316 66.3555 113.899 72.7902 124.295 83.1907C134.691 93.5911 141.123 107.961 141.123 123.833C141.123 139.703 134.695 154.075 124.295 164.476Z" fill="#6929C4"/>
<path d="M459.702 335.823H89.12C84.2226 335.823 80.2314 331.856 80.2314 326.945V104.788C80.2314 99.8965 84.2033 95.9102 89.12 95.9102H459.702C464.6 95.9102 468.591 99.8773 468.591 104.788V326.945C468.571 331.837 464.6 335.823 459.702 335.823Z" fill="#0062FF"/>
<path d="M457.387 108.447H91.4131V321.265H457.387V108.447Z" fill="#EDF5FF"/>
<path d="M96.5997 108.447H91.4131V321.265H96.5997V108.447Z" fill="#0062FF"/>
<path d="M457.387 108.447H452.2V321.265H457.387V108.447Z" fill="#0062FF"/>
<path d="M91.416 108.449V113.629L457.39 113.629V108.449L91.416 108.449Z" fill="#0062FF"/>
<path d="M482.529 359.106H66.2704C55.2609 359.106 46.3145 350.19 46.3145 339.175V338.404H502.485V339.175C502.485 350.19 493.558 359.106 482.529 359.106Z" fill="#0062FF"/>
<path d="M477.264 333.84H71.5321C69.0641 333.84 67.0781 335.843 67.0781 338.288V338.404H481.718V338.288C481.718 335.843 479.732 333.84 477.264 333.84Z" fill="#0062FF"/>
<path d="M522.294 358.24H0.162109V363.28H522.294V358.24Z" fill="#0062FF"/>
<path d="M375.473 236.502C375.204 236.788 374.846 236.949 374.487 236.949C374.2 236.949 373.895 236.842 373.662 236.627C373.125 236.18 373.053 235.358 373.519 234.821C376.226 231.656 379.632 229.187 383.379 227.667C384.042 227.417 384.795 227.721 385.064 228.383C385.315 229.044 385.01 229.796 384.347 230.064C380.977 231.423 377.911 233.659 375.473 236.502Z" fill="#1BA049"/>
<path d="M130.459 168.241C130.116 170.541 127.975 172.126 125.675 171.783C123.376 171.44 121.792 169.297 122.134 166.997C122.477 164.697 124.619 163.112 126.919 163.455C129.218 163.798 130.802 165.94 130.459 168.241Z" fill="#0062FF"/>
<path d="M125.602 169.756C125.556 169.729 125.514 169.691 125.482 169.647L124.081 167.813C123.932 167.618 123.968 167.337 124.165 167.187C124.36 167.038 124.641 167.075 124.791 167.271L125.883 168.7L128.152 166.432C128.325 166.256 128.606 166.258 128.784 166.432C128.957 166.607 128.957 166.89 128.784 167.063L126.153 169.693C126.062 169.784 125.936 169.832 125.809 169.822C125.733 169.816 125.663 169.794 125.602 169.756Z" fill="white"/>
<path d="M281.855 49.1797C281.255 53.1902 277.521 55.9549 273.512 55.3549C269.503 54.755 266.74 51.0195 267.34 47.009C267.939 42.9985 271.673 40.2338 275.682 40.8338C279.691 41.4337 282.455 45.1692 281.855 49.1797Z" fill="#0062FF"/>
<path d="M273.386 51.8194C273.306 51.7696 273.234 51.7058 273.177 51.6301L270.734 48.4308C270.473 48.088 270.536 47.5996 270.879 47.3385C271.22 47.0774 271.71 47.1431 271.971 47.484L273.874 49.9756L277.833 46.0229C278.136 45.7179 278.626 45.7199 278.935 46.0229C279.238 46.3279 279.238 46.8222 278.933 47.1252L274.346 51.7078C274.187 51.8673 273.968 51.949 273.744 51.933C273.615 51.9271 273.493 51.8852 273.386 51.8194Z" fill="white"/>
<path d="M176.13 124.163C175.787 126.463 173.645 128.048 171.346 127.705C169.047 127.362 167.463 125.219 167.805 122.919C168.148 120.619 170.29 119.034 172.589 119.377C174.889 119.72 176.473 121.862 176.13 124.163Z" fill="#0062FF"/>
<path d="M171.274 125.676C171.229 125.648 171.187 125.611 171.155 125.567L169.754 123.733C169.605 123.538 169.641 123.256 169.838 123.107C170.033 122.957 170.314 122.995 170.463 123.191L171.555 124.62L173.825 122.352C173.998 122.176 174.279 122.178 174.456 122.352C174.63 122.527 174.63 122.81 174.456 122.983L171.826 125.613C171.735 125.704 171.609 125.752 171.482 125.742C171.406 125.738 171.334 125.714 171.274 125.676Z" fill="white"/>
<path d="M205.18 143.568C204.704 143.568 204.317 143.181 204.317 142.705V136.617C204.317 136.141 204.704 135.754 205.18 135.754C205.656 135.754 206.043 136.141 206.043 136.617V142.705C206.043 143.181 205.656 143.568 205.18 143.568Z" fill="#FFC400"/>
<path d="M208.226 140.525H202.141C201.665 140.525 201.278 140.138 201.278 139.662C201.278 139.186 201.665 138.799 202.141 138.799H208.226C208.702 138.799 209.089 139.186 209.089 139.662C209.089 140.138 208.702 140.525 208.226 140.525Z" fill="#FFC400"/>
<path d="M386.348 257.167H333.9V233.487L386.348 171.143H411.442V234.829H424.447V257.166H411.442V276.533H386.348V257.167ZM386.348 234.831V202.22L358.635 234.831H386.348Z" fill="#0142D3"/>
<path d="M425.46 220.842C425.592 221.414 425.714 221.989 425.827 222.566C426.584 226.472 426.878 230.483 426.746 234.508C426.723 235.166 426.691 235.823 426.646 236.483C426.385 240.345 425.736 244.207 424.728 247.983C424.549 248.659 424.357 249.333 424.154 250.003C422.868 254.249 421.128 258.365 418.982 262.235C418.624 262.881 418.254 263.521 417.873 264.153C414.989 268.939 411.464 273.298 407.39 276.986C406.664 277.646 405.92 278.283 405.157 278.895C404.282 279.603 403.386 280.279 402.465 280.923C401.3 281.739 399.462 283.13 397.726 283.555C397.161 283.692 396.606 283.727 396.09 283.608C395.98 283.582 395.873 283.55 395.766 283.51C392.876 282.423 392.635 275.867 392.46 273.228C392.396 272.282 392.359 271.337 392.347 270.396C392.329 269.255 392.349 268.115 392.402 266.98C392.563 263.474 393.035 259.997 393.74 256.558C393.904 255.744 394.084 254.933 394.276 254.124C394.282 254.096 394.29 254.067 394.296 254.038C395.141 250.484 396.211 246.973 397.418 243.515C397.642 242.864 397.875 242.215 398.113 241.566C398.903 239.398 399.74 237.251 400.601 235.127C400.908 234.37 401.219 233.614 401.527 232.861C401.762 232.295 401.995 231.728 402.228 231.163C403.567 227.918 404.902 224.682 406.11 221.389C406.324 220.809 406.531 220.229 406.735 219.645C407.053 218.739 407.358 217.829 407.649 216.911C408.337 214.75 408.962 212.569 409.489 210.365C409.649 209.7 409.799 209.033 409.94 208.363C410.03 207.926 410.119 207.49 410.201 207.052C410.381 206.097 411.295 202.259 411.525 199.579C411.543 199.386 411.605 199.215 411.7 199.075C412.049 198.553 412.832 198.415 413.339 198.915C413.345 198.921 413.351 198.925 413.357 198.931C416.219 201.753 418.591 204.858 420.505 208.167C420.796 208.672 421.078 209.181 421.347 209.694C423.21 213.228 424.568 216.975 425.46 220.842Z" fill="#3A85FF"/>
<path d="M415.593 227.923C418.883 225.563 422.172 223.203 425.461 220.842C425.593 221.414 425.714 221.989 425.827 222.566C422.303 225.095 418.78 227.624 415.256 230.152C414.559 234.355 413.536 238.51 412.271 242.592C412.856 242.31 413.441 242.027 414.023 241.737C415.265 241.118 416.5 240.479 417.723 239.823C420.799 238.17 423.811 236.398 426.746 234.509C426.724 235.167 426.691 235.825 426.647 236.484C425.946 236.928 425.241 237.365 424.531 237.794C421.95 239.361 419.316 240.839 416.637 242.226C415.319 242.909 413.989 243.57 412.648 244.21C412.321 244.364 411.965 244.575 411.596 244.695C410.452 248.142 409.148 251.534 407.728 254.855C407.69 254.945 407.648 255.036 407.61 255.128C413.361 252.853 419.068 250.472 424.729 247.986C424.549 248.662 424.358 249.336 424.154 250.006C418.377 252.526 412.55 254.935 406.682 257.234C405.266 260.38 403.756 263.495 402.399 266.667C407.872 264.993 413.404 263.515 418.982 262.238C418.625 262.884 418.255 263.524 417.873 264.156C412.399 265.445 406.968 266.925 401.596 268.596C400.765 270.66 400.02 272.757 399.426 274.909C399.154 275.893 398.914 276.886 398.697 277.881C399.316 277.861 399.942 277.781 400.555 277.731C402.84 277.54 405.119 277.292 407.39 276.988C406.664 277.647 405.92 278.284 405.157 278.896C403.256 279.118 401.348 279.296 399.439 279.435C399.067 279.462 398.709 279.489 398.373 279.478C398.116 280.83 397.904 282.19 397.726 283.555C397.162 283.692 396.607 283.727 396.09 283.608C396.292 282.025 396.54 280.448 396.843 278.884C396.725 278.76 396.614 278.617 396.513 278.442C395.752 277.129 395.109 275.733 394.413 274.386C393.724 273.056 393.037 271.726 392.349 270.396C392.331 269.255 392.351 268.115 392.404 266.98C393.449 269.001 394.494 271.024 395.541 273.045C396.144 274.208 396.745 275.371 397.347 276.534C397.655 275.221 398.008 273.917 398.415 272.625C398.879 271.15 399.411 269.701 399.979 268.269C397.901 264.365 395.82 260.462 393.742 256.558C393.906 255.744 394.086 254.933 394.278 254.124C396.443 258.19 398.609 262.258 400.777 266.325C402.144 263.101 403.673 259.939 405.12 256.748C402.64 252.287 400.074 247.875 397.42 243.516C397.644 242.866 397.877 242.217 398.115 241.568C400.812 245.96 403.419 250.408 405.94 254.908C406.231 254.246 406.517 253.582 406.793 252.914C407.97 250.074 409.06 247.195 410.032 244.278C409.906 244.134 409.793 243.973 409.685 243.812C407.148 240.026 404.434 236.37 401.532 232.861C401.767 232.295 402 231.728 402.233 231.163C403.514 232.69 404.761 234.246 405.974 235.831C407.599 237.96 409.158 240.139 410.65 242.364C411.59 239.364 412.399 236.325 413.041 233.25C413.252 232.244 413.444 231.232 413.614 230.214C411.159 227.234 408.659 224.292 406.113 221.389C406.327 220.809 406.535 220.229 406.738 219.645C409.183 222.419 411.585 225.232 413.947 228.077C414.484 224.256 414.735 220.383 414.654 216.525C414.55 216.477 414.459 216.411 414.392 216.329C412.759 214.342 411.126 212.353 409.492 210.365C409.652 209.7 409.802 209.033 409.943 208.363C411.478 210.23 413.013 212.098 414.548 213.966C414.238 208.896 413.329 203.881 411.704 199.075C412.053 198.553 412.835 198.415 413.343 198.915C413.349 198.921 413.355 198.925 413.361 198.931C414.894 203.59 415.789 208.452 416.134 213.357C417.639 211.666 419.097 209.934 420.508 208.167C420.799 208.672 421.081 209.181 421.35 209.694C419.713 211.722 418.011 213.7 416.255 215.628C416.401 219.751 416.154 223.857 415.593 227.923Z" fill="#22242A"/>
<path d="M440.96 239.704C440.884 240.132 440.8 240.559 440.708 240.986C440.087 243.865 439.121 246.682 437.859 249.384C437.653 249.825 437.439 250.264 437.216 250.7C435.914 253.254 434.35 255.694 432.565 257.972C432.246 258.38 431.921 258.783 431.587 259.181C429.476 261.696 427.095 263.994 424.508 266.005C424.076 266.34 423.638 266.668 423.195 266.988C419.839 269.407 416.171 271.349 412.323 272.674C411.637 272.912 410.946 273.128 410.248 273.323C409.446 273.55 408.639 273.749 407.825 273.921C406.795 274.137 405.138 274.55 403.832 274.333C403.407 274.262 403.02 274.125 402.702 273.893C402.635 273.843 402.572 273.791 402.511 273.733C400.858 272.151 402.603 267.617 403.251 265.768C403.483 265.106 403.732 264.453 403.998 263.807C404.317 263.024 404.663 262.255 405.03 261.497C406.16 259.157 407.493 256.926 408.973 254.789C409.321 254.283 409.681 253.784 410.046 253.288C410.058 253.27 410.073 253.254 410.085 253.236C411.694 251.062 413.444 248.983 415.273 246.979C415.614 246.602 415.962 246.228 416.312 245.855C417.48 244.609 418.675 243.39 419.879 242.195C420.308 241.768 420.74 241.345 421.169 240.92C421.493 240.603 421.816 240.285 422.14 239.968C423.996 238.148 425.847 236.334 427.627 234.443C427.94 234.11 428.25 233.776 428.559 233.437C429.04 232.913 429.512 232.381 429.977 231.842C431.074 230.571 432.133 229.269 433.133 227.92C433.435 227.513 433.731 227.103 434.022 226.689C434.21 226.419 434.397 226.147 434.581 225.872C434.982 225.274 436.72 222.927 437.657 221.169C437.725 221.043 437.818 220.945 437.923 220.878C438.312 220.624 438.885 220.758 439.085 221.246C439.088 221.252 439.09 221.257 439.093 221.263C440.221 224.017 440.932 226.823 441.272 229.632C441.324 230.06 441.367 230.489 441.401 230.917C441.642 233.865 441.477 236.811 440.96 239.704Z" fill="#A7C7FF"/>
<path d="M432.18 241.653C435.108 241.004 438.034 240.355 440.96 239.705C440.884 240.132 440.799 240.56 440.707 240.986C437.572 241.683 434.437 242.378 431.303 243.073C429.605 245.731 427.7 248.263 425.652 250.675C426.133 250.654 426.612 250.63 427.093 250.602C428.12 250.543 429.146 250.467 430.171 250.376C432.746 250.148 435.313 249.816 437.86 249.384C437.654 249.825 437.44 250.265 437.217 250.7C436.61 250.798 436.005 250.89 435.396 250.976C433.183 251.291 430.96 251.532 428.731 251.695C427.634 251.777 426.537 251.839 425.437 251.884C425.168 251.894 424.865 251.934 424.578 251.907C422.797 253.921 420.922 255.852 418.989 257.699C418.936 257.75 418.883 257.8 418.829 257.851C423.407 257.975 427.985 258.017 432.564 257.971C432.244 258.379 431.919 258.782 431.585 259.18C426.918 259.214 422.249 259.158 417.585 259.015C415.706 260.745 413.771 262.426 411.925 264.192C416.139 264.646 420.334 265.251 424.504 266.004C424.072 266.339 423.634 266.667 423.192 266.987C419.089 266.27 414.961 265.698 410.817 265.272C409.651 266.436 408.533 267.646 407.502 268.938C407.03 269.529 406.579 270.135 406.143 270.75C406.57 270.916 407.02 271.045 407.452 271.19C409.063 271.726 410.687 272.22 412.321 272.673C411.635 272.911 410.944 273.128 410.246 273.322C408.886 272.918 407.537 272.484 406.195 272.024C405.933 271.934 405.683 271.847 405.457 271.743C404.89 272.588 404.348 273.453 403.83 274.33C403.405 274.259 403.018 274.123 402.7 273.891C403.298 272.872 403.925 271.87 404.587 270.892C404.542 270.774 404.51 270.645 404.49 270.495C404.354 269.379 404.323 268.242 404.24 267.12C404.158 266.014 404.076 264.908 403.995 263.803C404.314 263.02 404.66 262.251 405.026 261.494C405.15 263.175 405.273 264.856 405.397 266.537C405.47 267.504 405.54 268.472 405.613 269.437C406.205 268.632 406.824 267.848 407.477 267.086C408.222 266.218 409.006 265.386 409.809 264.575C409.53 261.311 409.248 258.048 408.969 254.784C409.318 254.278 409.677 253.779 410.042 253.283C410.333 256.682 410.626 260.081 410.918 263.482C412.787 261.685 414.748 259.977 416.662 258.225C416.271 254.465 415.807 250.713 415.268 246.973C415.609 246.595 415.957 246.221 416.307 245.848C416.865 249.625 417.346 253.412 417.754 257.211C418.146 256.844 418.534 256.475 418.915 256.101C420.542 254.511 422.122 252.867 423.633 251.163C423.588 251.028 423.559 250.886 423.532 250.745C422.905 247.428 422.122 244.149 421.166 240.915C421.489 240.597 421.813 240.279 422.137 239.963C422.564 241.375 422.962 242.798 423.326 244.231C423.812 246.154 424.241 248.091 424.61 250.041C426.122 248.272 427.556 246.438 428.889 244.531C429.326 243.907 429.75 243.275 430.163 242.63C429.358 239.886 428.512 237.155 427.623 234.437C427.936 234.104 428.247 233.77 428.555 233.432C429.412 236.032 430.231 238.647 431.011 241.273C432.488 238.827 433.785 236.262 434.853 233.613C434.796 233.551 434.753 233.478 434.732 233.404C434.199 231.575 433.665 229.746 433.131 227.916C433.433 227.509 433.729 227.099 434.02 226.685C434.522 228.403 435.023 230.122 435.525 231.841C436.788 228.299 437.63 224.619 437.921 220.874C438.31 220.62 438.883 220.754 439.083 221.242C439.086 221.248 439.088 221.253 439.091 221.259C438.779 224.878 437.974 228.448 436.782 231.889C438.3 231.176 439.796 230.42 441.271 229.628C441.323 230.056 441.366 230.485 441.401 230.913C439.695 231.817 437.963 232.668 436.205 233.47C435.108 236.323 433.745 239.048 432.18 241.653Z" fill="#22242A"/>
<path d="M430.755 254.653C430.302 254.638 429.848 254.631 429.392 254.632C426.316 254.638 423.229 255.012 420.196 255.71C419.7 255.825 419.206 255.948 418.713 256.08C415.821 256.854 412.99 257.919 410.274 259.248C409.788 259.484 409.305 259.729 408.827 259.984C405.798 261.592 402.933 263.525 400.316 265.73C399.879 266.097 399.449 266.473 399.026 266.857C395.825 269.758 393.042 273.084 390.85 276.725C390.459 277.375 390.085 278.033 389.735 278.705C389.328 279.473 388.948 280.255 388.596 281.05C388.151 282.055 387.369 283.657 387.306 285.04C387.285 285.489 387.341 285.915 387.509 286.29C387.547 286.37 387.586 286.445 387.632 286.52C388.887 288.552 393.897 287.76 395.924 287.501C396.652 287.409 397.374 287.297 398.091 287.166C398.959 287.01 399.819 286.825 400.674 286.617C403.311 285.973 405.877 285.098 408.38 284.05C408.973 283.804 409.562 283.546 410.147 283.281C410.168 283.272 410.188 283.262 410.208 283.253C412.779 282.083 415.283 280.748 417.727 279.317C418.187 279.05 418.646 278.776 419.101 278.499C420.628 277.578 422.133 276.623 423.616 275.651C424.146 275.305 424.672 274.957 425.198 274.61C425.592 274.348 425.988 274.086 426.381 273.825C428.644 272.326 430.899 270.831 433.22 269.423C433.627 269.175 434.037 268.931 434.45 268.689C435.09 268.313 435.735 267.945 436.388 267.588C437.923 266.744 439.486 265.945 441.08 265.218C441.56 264.997 442.044 264.785 442.532 264.578C442.85 264.444 443.168 264.313 443.488 264.184C444.187 263.906 446.961 262.641 448.96 262.067C449.104 262.026 449.224 261.953 449.316 261.86C449.66 261.517 449.649 260.902 449.195 260.591C449.19 260.587 449.185 260.585 449.18 260.581C446.614 258.828 443.905 257.489 441.111 256.529C440.684 256.384 440.257 256.245 439.827 256.118C436.865 255.23 433.821 254.756 430.755 254.653Z" fill="#6FA3FF"/>
<path d="M426.851 263.199C428.152 260.349 429.454 257.503 430.754 254.654C430.301 254.639 429.847 254.632 429.391 254.633C427.998 257.684 426.603 260.736 425.21 263.787C422.126 264.942 419.125 266.337 416.217 267.904C416.343 267.418 416.472 266.933 416.605 266.446C416.89 265.41 417.19 264.378 417.507 263.352C418.303 260.77 419.199 258.221 420.196 255.711C419.7 255.826 419.206 255.948 418.713 256.081C418.479 256.68 418.254 257.28 418.034 257.882C417.23 260.074 416.501 262.293 415.848 264.535C415.526 265.637 415.221 266.746 414.936 267.858C414.868 268.13 414.76 268.431 414.724 268.73C412.28 270.112 409.9 271.605 407.592 273.177C407.529 273.22 407.466 273.265 407.403 273.308C408.273 268.603 409.23 263.916 410.273 259.248C409.787 259.485 409.305 259.73 408.826 259.985C407.775 264.746 406.813 269.528 405.943 274.325C403.767 275.868 401.628 277.477 399.423 278.98C399.879 274.576 400.175 270.157 400.315 265.731C399.878 266.098 399.448 266.474 399.025 266.858C398.862 271.206 398.546 275.549 398.079 279.877C396.637 280.814 395.156 281.693 393.612 282.464C392.906 282.816 392.19 283.146 391.466 283.458C391.389 282.985 391.355 282.497 391.303 282.025C391.107 280.262 390.957 278.496 390.849 276.726C390.458 277.376 390.085 278.034 389.734 278.705C389.85 280.182 389.999 281.656 390.176 283.127C390.212 283.413 390.245 283.689 390.302 283.943C389.315 284.338 388.316 284.702 387.305 285.041C387.285 285.49 387.341 285.916 387.509 286.291C388.678 285.903 389.839 285.479 390.981 285.017C391.092 285.089 391.217 285.15 391.365 285.202C392.474 285.585 393.629 285.866 394.754 286.193C395.866 286.517 396.977 286.843 398.088 287.167C398.957 287.011 399.817 286.826 400.672 286.618C398.982 286.125 397.293 285.633 395.602 285.138C394.631 284.853 393.659 284.57 392.687 284.286C393.637 283.857 394.575 283.395 395.492 282.895C396.542 282.322 397.562 281.705 398.565 281.059C401.836 282.056 405.106 283.055 408.377 284.053C408.97 283.807 409.558 283.549 410.143 283.284C406.736 282.245 403.329 281.205 399.92 280.165C402.162 278.648 404.334 277.017 406.539 275.443C410.293 276.662 414.022 277.954 417.724 279.32C418.183 279.053 418.642 278.779 419.098 278.502C415.364 277.108 411.602 275.791 407.814 274.546C408.273 274.226 408.734 273.911 409.2 273.602C411.179 272.286 413.201 271.031 415.27 269.859C415.397 269.933 415.536 269.995 415.676 270.053C418.925 271.415 422.103 272.932 425.196 274.614C425.59 274.352 425.986 274.09 426.379 273.829C425.03 273.083 423.665 272.368 422.281 271.683C420.424 270.766 418.539 269.906 416.629 269.105C418.764 267.946 420.949 266.879 423.188 265.933C423.919 265.625 424.659 265.327 425.405 265.047C428.031 266.467 430.635 267.927 433.216 269.429C433.624 269.18 434.034 268.936 434.446 268.695C431.978 267.252 429.488 265.846 426.977 264.476C429.796 263.499 432.697 262.733 435.634 262.222C435.686 262.293 435.749 262.353 435.822 262.391C437.572 263.335 439.325 264.28 441.075 265.224C441.556 265.003 442.04 264.791 442.527 264.584C440.882 263.697 439.238 262.81 437.592 261.921C441.484 261.402 445.424 261.346 449.312 261.865C449.655 261.523 449.644 260.908 449.19 260.597C449.185 260.593 449.181 260.59 449.176 260.586C445.413 260.115 441.593 260.159 437.82 260.627C438.879 259.232 439.976 257.869 441.106 256.534C440.679 256.389 440.252 256.25 439.823 256.123C438.527 257.669 437.28 259.254 436.079 260.874C432.931 261.371 429.852 262.168 426.851 263.199Z" fill="#22242A"/>
<path d="M358.4 283.658C358.4 283.658 360.875 276.683 368.025 279.473C368.025 279.473 366.374 258.547 380.125 257.71C393.874 256.872 393.049 275.008 393.049 275.008C393.049 275.008 395.798 271.381 400.199 272.777C404.599 274.172 404.049 279.752 404.049 279.752C404.049 279.752 409.188 273.622 413.948 275.008C418.709 276.395 415.324 281.146 415.324 281.146C415.324 281.146 425.223 277.798 427.424 283.657H358.4V283.658Z" fill="#0062FF"/>
<path d="M177.051 257.167H124.603V233.487L177.051 171.143H202.144V234.829H215.149V257.166H202.144V276.533H177.051V257.167ZM177.051 234.831V202.22L149.337 234.831H177.051Z" fill="#0142D3"/>
<path fill-rule="evenodd" clip-rule="evenodd" d="M281.223 265.708C284.514 265.129 287.688 264.158 290.685 262.842L297.676 271.379C298.642 272.555 300.388 272.728 301.563 271.765L314.641 261.048C315.816 260.085 315.99 258.335 315.027 257.16L308.033 248.619C309.913 245.938 311.491 243.017 312.706 239.902L323.684 240.994C325.198 241.144 326.554 240.029 326.705 238.518L328.378 221.688C328.528 220.178 327.414 218.817 325.904 218.667L314.925 217.576C314.347 214.283 313.379 211.108 312.06 208.11L320.595 201.116C321.77 200.153 321.944 198.403 320.982 197.228L310.269 184.145C309.307 182.97 307.558 182.796 306.383 183.759L297.844 190.756C295.165 188.876 292.248 187.298 289.132 186.083L290.223 175.1C290.374 173.589 289.26 172.229 287.749 172.079L270.926 170.406C269.416 170.256 268.056 171.371 267.906 172.881L266.814 183.864C263.523 184.443 260.349 185.415 257.352 186.731L250.358 178.19C249.396 177.014 247.646 176.84 246.471 177.803L233.393 188.521C232.218 189.483 232.044 191.234 233.006 192.409L239.997 200.95C238.117 203.63 236.54 206.552 235.325 209.666L224.35 208.575C222.84 208.425 221.479 209.54 221.329 211.05L219.656 227.88C219.506 229.391 220.62 230.751 222.13 230.902L233.109 231.993C233.687 235.286 234.655 238.46 235.973 241.459L227.438 248.456C226.263 249.419 226.09 251.169 227.052 252.344L237.764 265.427C238.726 266.602 240.476 266.776 241.651 265.813L250.189 258.816C252.868 260.696 255.789 262.274 258.902 263.489L257.81 274.472C257.66 275.986 258.774 277.343 260.287 277.494L277.107 279.166C278.621 279.316 279.978 278.201 280.128 276.691L281.22 265.708L281.223 265.708ZM271.883 246.322C259.994 245.141 251.315 234.542 252.498 222.649C253.68 210.755 264.275 202.073 276.164 203.254C288.053 204.436 296.731 215.035 295.549 226.928C294.367 238.821 283.771 247.504 271.883 246.322Z" fill="#F18A00"/>
<path fill-rule="evenodd" clip-rule="evenodd" d="M281.223 265.708C284.514 265.129 287.688 264.158 290.685 262.842L297.676 271.379C298.642 272.555 300.388 272.728 301.563 271.765L314.641 261.048C315.816 260.085 315.99 258.335 315.027 257.16L308.033 248.619C309.913 245.938 311.491 243.017 312.706 239.902L323.684 240.994C325.198 241.144 326.554 240.029 326.705 238.518L328.378 221.688C328.528 220.178 327.414 218.817 325.904 218.667L314.925 217.576C314.347 214.283 313.379 211.108 312.06 208.11L320.595 201.116C321.77 200.153 321.944 198.403 320.982 197.228L310.269 184.145C309.307 182.97 307.558 182.796 306.383 183.759L297.844 190.756C295.165 188.876 292.248 187.298 289.132 186.083L290.223 175.1C290.374 173.589 289.26 172.229 287.749 172.079L270.926 170.406C269.416 170.256 268.056 171.371 267.906 172.881L266.814 183.864C263.523 184.443 260.349 185.415 257.352 186.731L250.358 178.19C249.396 177.014 247.646 176.84 246.471 177.803L233.393 188.521C232.218 189.483 232.044 191.234 233.006 192.409L239.997 200.95C238.117 203.63 236.54 206.552 235.325 209.666L224.35 208.575C222.84 208.425 221.479 209.54 221.329 211.05L219.656 227.88C219.506 229.391 220.62 230.751 222.13 230.902L233.109 231.993C233.687 235.286 234.655 238.46 235.973 241.459L227.438 248.456C226.263 249.419 226.09 251.169 227.052 252.344L237.764 265.427C238.726 266.602 240.476 266.776 241.651 265.813L250.189 258.816C252.868 260.696 255.789 262.274 258.902 263.489L257.81 274.472C257.66 275.986 258.774 277.343 260.287 277.494L277.107 279.166C278.621 279.316 279.978 278.201 280.128 276.691L281.22 265.708L281.223 265.708ZM271.883 246.322C259.994 245.141 251.315 234.542 252.498 222.649C253.68 210.755 264.275 202.073 276.164 203.254C288.053 204.436 296.731 215.035 295.549 226.928C294.367 238.821 283.771 247.504 271.883 246.322Z" fill="#0142D3"/>
<path fill-rule="evenodd" clip-rule="evenodd" d="M271.581 249.346C278.359 250.02 284.771 247.882 289.655 243.879C294.539 239.876 297.897 234.009 298.571 227.228C299.245 220.446 297.109 214.033 293.108 209.147C289.107 204.261 283.242 200.902 276.463 200.228C269.685 199.555 263.274 201.693 258.389 205.695C253.505 209.698 250.147 215.566 249.473 222.347C248.799 229.128 250.936 235.542 254.936 240.428C258.937 245.314 264.799 248.672 271.581 249.346ZM290.572 244.999C285.402 249.235 278.614 251.499 271.438 250.786C264.261 250.072 258.052 246.516 253.817 241.345C249.583 236.173 247.32 229.383 248.034 222.204C248.747 215.025 252.303 208.812 257.472 204.576C262.642 200.339 269.43 198.075 276.607 198.789C283.783 199.502 289.992 203.058 294.227 208.23C298.462 213.401 300.724 220.192 300.01 227.371C299.297 234.55 295.742 240.759 290.572 244.999Z" fill="#D6D8DE"/>
<path fill-rule="evenodd" clip-rule="evenodd" d="M270.331 261.928C280.582 262.947 290.278 259.713 297.664 253.66C305.05 247.607 310.129 238.734 311.149 228.479C312.168 218.221 308.935 208.525 302.885 201.136C296.836 193.748 287.966 188.668 277.715 187.649C267.462 186.629 257.769 189.865 250.379 195.917C242.993 201.97 237.914 210.843 236.895 221.098C235.875 231.355 239.108 241.052 245.158 248.44C251.208 255.829 260.078 260.909 270.331 261.928ZM298.581 254.779C290.909 261.069 280.836 264.427 270.188 263.368C259.54 262.31 250.326 257.032 244.042 249.358C237.759 241.684 234.4 231.607 235.459 220.955C236.518 210.302 241.795 201.084 249.466 194.798C257.138 188.508 267.21 185.15 277.859 186.209C288.507 187.267 297.721 192.545 304.005 200.219C310.288 207.893 313.647 217.97 312.588 228.622C311.529 239.275 306.252 248.493 298.581 254.779Z" fill="#D6D8DE"/>
<path d="M129.964 283.215C129.964 283.215 132.811 275.243 141.038 278.431C141.038 278.431 139.14 254.516 154.959 253.559C170.779 252.603 169.83 273.329 169.83 273.329C169.83 273.329 172.994 269.183 178.055 270.779C183.118 272.373 182.485 278.75 182.485 278.75C182.485 278.75 188.397 271.744 193.876 273.329C199.352 274.914 195.457 280.344 195.457 280.344C195.457 280.344 206.847 276.517 209.378 283.215H129.964Z" fill="#0062FF"/>
<path d="M193.158 80.7211C193.158 80.7211 168.639 79.7369 162.948 82.5494C157.257 85.3652 158.569 92.8696 161.195 102.25C163.822 111.631 168.639 137.698 168.639 137.698L181.336 133.946C181.336 133.946 174.767 102.25 177.394 98.9661L211.109 98.4979C211.109 98.4979 213.299 106.272 206.73 133.946L218.99 136.762C218.99 136.762 226.87 105.066 229.06 95.2139C231.25 85.3652 226.43 79.8395 212.858 80.2564C199.29 80.6733 193.158 80.7211 193.158 80.7211Z" fill="#022D9A"/>
<path d="M226.437 58.1582C226.437 58.1582 227.312 64.2547 226.437 66.6024C225.563 68.9466 213.303 79.2669 213.303 79.2669L211.551 68.4785C211.551 68.4785 217.269 63.1953 217.474 61.1449C217.679 59.098 226.437 58.1582 226.437 58.1582Z" fill="#FFD4D4"/>
<path d="M162.948 59.0998C162.948 59.0998 161.195 66.136 161.633 68.9484C162.07 71.7609 173.018 80.205 173.018 80.205V68.9484C173.018 68.9484 170.312 66.4641 171.009 62.5478C171.703 58.6282 162.948 59.0998 162.948 59.0998Z" fill="#FFD4D4"/>
<path d="M190.095 30.0176C190.095 30.0176 170.391 28.1416 166.887 39.3981C163.385 50.6547 161.633 60.0352 161.633 60.0352L172.14 62.8511L174.767 54.8785L175.204 81.1439L215.048 80.2042L213.733 54.8751L216.36 61.4432L226.867 58.6273C226.867 58.6273 224.24 41.2742 219.861 36.1141C215.489 30.954 203.666 30.4858 190.095 30.0176Z" fill="#A7C7FF"/>
<path d="M187.031 30.4863V36.1146C187.031 38.5717 188.131 40.7519 189.836 42.1188C191.007 43.0586 192.463 43.619 194.037 43.619C195.489 43.619 196.835 43.1474 197.955 42.3375C199.821 40.9877 201.043 38.7049 201.043 36.1146V30.4863H187.031Z" fill="#696C73"/>
<path d="M183.745 21.337C183.745 21.337 181.118 21.8051 181.993 25.0892C182.867 28.3732 183.745 27.905 183.745 27.905C183.745 27.905 185.935 39.6298 193.378 39.6298C200.821 39.6298 203.886 32.5935 203.886 28.3732C203.886 28.3732 205.638 27.905 206.075 24.621C206.512 21.337 204.323 21.337 204.323 21.337C204.323 21.337 206.075 12.4246 193.378 12.8928C180.681 13.3644 183.745 21.337 183.745 21.337Z" fill="#FFD4D4"/>
<path d="M184.4 24.3893C184.4 24.3893 180.458 15.9451 181.773 9.84867C183.089 3.7522 193.159 3.7522 195.786 0C195.786 0 212.425 0.939755 204.104 24.3893C204.104 24.3893 204.978 18.2928 200.162 17.3531C195.345 16.4133 190.091 15.477 189.654 14.5372C189.658 14.5372 183.963 17.3531 184.4 24.3893Z" fill="#22242A"/>
<path d="M171.037 61.9316L173.018 89.1163L215.27 88.8805L217.279 61.6582L171.037 61.9316Z" fill="#0142D3"/>
<path d="M168.486 137.007C168.486 137.007 167.324 140.045 163.823 144.265C160.321 148.485 159.881 151.301 164.697 150.833C169.514 150.365 183.963 141.921 183.526 139.108C183.089 136.292 181.162 133.203 181.162 133.203L168.486 137.007Z" fill="#22242A"/>
<path d="M219.096 136.535C219.096 136.535 220.694 140.041 224.199 144.265C227.704 148.489 228.141 151.301 223.325 150.833C218.508 150.365 204.059 141.921 204.496 139.108C204.933 136.292 206.86 133.203 206.86 133.203L219.096 136.535Z" fill="#22242A"/>
<path d="M325.388 135.478C324.676 135.478 324.099 134.9 324.099 134.186V125.081C324.099 124.369 324.676 123.791 325.388 123.791C326.099 123.791 326.679 124.369 326.679 125.081V134.186C326.679 134.898 326.101 135.478 325.388 135.478Z" fill="#FF0096"/>
<path d="M329.939 130.923H320.835C320.124 130.923 319.544 130.345 319.544 129.631C319.544 128.92 320.122 128.342 320.835 128.342H329.939C330.65 128.342 331.23 128.92 331.23 129.631C331.23 130.345 330.652 130.923 329.939 130.923Z" fill="#FF0096"/>
<path d="M111.821 316.146C111.11 316.146 110.532 315.568 110.532 314.854V305.749C110.532 305.037 111.11 304.459 111.821 304.459C112.533 304.459 113.113 305.037 113.113 305.749V314.854C113.113 315.566 112.535 316.146 111.821 316.146Z" fill="#FF0096"/>
<path d="M116.373 311.591H107.269C106.557 311.591 105.978 311.013 105.978 310.299C105.978 309.588 106.555 309.01 107.269 309.01H116.373C117.084 309.01 117.664 309.588 117.664 310.299C117.664 311.013 117.086 311.591 116.373 311.591Z" fill="#FF0096"/>
<path d="M370.94 298.883C371.137 298.883 371.334 298.847 371.513 298.74C374.686 297.166 378.361 295.306 381.929 293.339C382.556 292.999 382.771 292.212 382.431 291.586C382.09 290.96 381.301 290.746 380.674 291.085C377.142 293.017 373.485 294.859 370.348 296.433C369.721 296.755 369.452 297.524 369.774 298.15C370.007 298.615 370.474 298.883 370.94 298.883ZM394.442 285.148C394.711 285.148 394.997 285.058 395.23 284.88C398.637 282.268 401.505 279.639 403.979 276.796C404.445 276.259 404.391 275.455 403.853 274.99C403.316 274.525 402.509 274.578 402.043 275.115C399.676 277.815 396.934 280.337 393.671 282.841C393.097 283.27 392.99 284.075 393.438 284.647C393.671 284.987 394.047 285.148 394.442 285.148ZM391.986 278.853C392.577 278.853 393.115 278.441 393.241 277.833C393.384 277.136 392.954 276.456 392.255 276.313C390.946 276.027 389.637 275.651 388.382 275.204C386.195 274.399 384.062 273.291 382.09 271.896C381.516 271.484 380.71 271.627 380.297 272.2C379.885 272.772 380.029 273.577 380.602 273.988C382.771 275.526 385.084 276.742 387.504 277.619C388.866 278.119 390.283 278.513 391.699 278.835C391.806 278.853 391.896 278.853 391.986 278.853ZM410.791 263.937C411.347 263.937 411.849 263.579 412.028 263.025C413.014 259.77 413.516 256.336 413.516 252.849C413.516 252.259 413.498 251.668 413.48 251.078C413.444 250.363 412.835 249.826 412.136 249.862C411.418 249.898 410.881 250.506 410.916 251.203C410.952 251.74 410.952 252.294 410.952 252.849C410.952 256.104 410.486 259.269 409.572 262.292C409.357 262.971 409.751 263.687 410.432 263.901C410.54 263.919 410.666 263.937 410.791 263.937ZM371.477 262.435C371.657 262.435 371.836 262.399 372.015 262.31C372.661 262.006 372.947 261.254 372.643 260.611C371.065 257.23 370.276 253.761 370.276 250.273C370.276 250.148 370.276 250.023 370.276 249.898C370.294 249.182 369.721 248.61 369.004 248.592H368.986C368.286 248.592 367.713 249.147 367.695 249.862C367.695 250.005 367.695 250.148 367.695 250.291C367.695 254.154 368.573 257.999 370.312 261.719C370.527 262.149 370.993 262.435 371.477 262.435ZM441.302 212.537C441.374 212.537 441.446 212.537 441.5 212.52C442.199 212.412 442.683 211.751 442.575 211.053C441.984 207.351 441.141 203.47 440.066 199.536C439.886 198.856 439.169 198.445 438.488 198.641C437.807 198.82 437.394 199.536 437.592 200.215C438.649 204.06 439.474 207.852 440.048 211.464C440.137 212.09 440.675 212.537 441.302 212.537ZM433.917 186.408C434.078 186.408 434.221 186.373 434.383 186.319C435.046 186.069 435.387 185.317 435.118 184.656C433.809 181.276 432.339 177.735 430.618 173.836C430.331 173.192 429.578 172.888 428.915 173.174C428.27 173.46 427.965 174.211 428.252 174.873C429.955 178.736 431.407 182.241 432.698 185.586C432.913 186.104 433.397 186.408 433.917 186.408ZM400.913 111.795C401.057 111.795 401.2 111.777 401.326 111.723C402.007 111.491 402.365 110.758 402.132 110.096C400.842 106.322 399.694 102.602 398.744 99.0435C398.565 98.3639 397.848 97.9525 397.167 98.1314C396.485 98.3102 396.073 99.0256 396.252 99.7052C397.22 103.318 398.368 107.109 399.694 110.937C399.874 111.473 400.376 111.795 400.913 111.795ZM480.24 110.919C480.562 110.919 480.885 110.793 481.136 110.561C483.986 107.825 486.657 104.856 489.06 101.762C489.49 101.207 489.4 100.403 488.827 99.9556C488.271 99.5263 487.464 99.6158 487.016 100.188C484.685 103.193 482.104 106.054 479.325 108.701C478.805 109.202 478.805 110.007 479.289 110.525C479.576 110.793 479.899 110.919 480.24 110.919ZM496.32 89.1176C496.786 89.1176 497.252 88.8494 497.467 88.4023C499.242 84.8075 500.712 81.1055 501.841 77.3855C502.039 76.7059 501.662 75.9905 500.981 75.7759C500.3 75.5792 499.583 75.9548 499.367 76.6344C498.274 80.2291 496.858 83.806 495.155 87.2577C494.832 87.9015 495.101 88.6705 495.746 88.9746C495.926 89.0819 496.123 89.1176 496.32 89.1176ZM318.486 89.1176C318.898 89.1176 319.31 88.9209 319.561 88.5453C319.956 87.9552 319.794 87.1504 319.203 86.7569C315.635 84.3783 312.391 82.3216 309.307 80.4616C308.698 80.1039 307.909 80.2828 307.532 80.8908C307.174 81.4989 307.353 82.2858 307.963 82.6614C311.028 84.5035 314.219 86.5423 317.751 88.903C317.984 89.0461 318.235 89.1176 318.486 89.1176ZM394.37 85.4514C394.424 85.4514 394.495 85.4514 394.549 85.4335C395.248 85.3262 395.75 84.6823 395.643 83.9848C395.535 83.1979 395.428 82.411 395.338 81.642C394.98 78.6732 394.782 75.615 394.746 72.5568C394.746 71.8593 394.155 71.287 393.456 71.287H393.438C392.721 71.287 392.147 71.8771 392.165 72.5925C392.201 75.758 392.398 78.9057 392.775 81.9639C392.864 82.7508 392.972 83.5735 393.097 84.3604C393.187 84.9864 393.743 85.4514 394.37 85.4514ZM294.93 75.4898C295.414 75.4898 295.88 75.2215 296.095 74.7386C296.4 74.0948 296.113 73.3258 295.468 73.0396C291.846 71.3764 288.154 69.892 284.496 68.658C283.815 68.4255 283.098 68.7831 282.865 69.4628C282.632 70.1424 282.991 70.8577 283.672 71.0902C287.239 72.2885 290.843 73.7371 294.392 75.3646C294.553 75.454 294.751 75.4898 294.93 75.4898ZM231.039 72.2706C231.236 72.2706 231.433 72.2169 231.63 72.1275C234.965 70.4106 238.55 69.0693 242.261 68.1214C242.942 67.9426 243.372 67.2451 243.193 66.5655C243.014 65.8859 242.315 65.4567 241.633 65.6355C237.725 66.637 233.961 68.0499 230.465 69.8562C229.837 70.1781 229.587 70.9472 229.909 71.591C230.124 72.0202 230.573 72.2706 231.039 72.2706ZM268.99 67.3703C269.617 67.3703 270.155 66.9232 270.263 66.2972C270.37 65.5997 269.904 64.938 269.205 64.8307C265.171 64.169 261.209 63.8292 257.373 63.8113C256.656 63.8113 256.082 64.3836 256.082 65.0811C256.082 65.7965 256.656 66.3688 257.355 66.3688C261.048 66.3867 264.884 66.7265 268.793 67.3524C268.864 67.3524 268.936 67.3703 268.99 67.3703ZM503.311 63.0423C503.993 63.0423 504.566 62.5058 504.602 61.8262C504.656 60.7889 504.674 59.7337 504.674 58.6964C504.674 56.7649 504.584 54.8155 504.405 52.9019C504.315 51.9182 504.19 50.9167 504.028 49.9331C503.921 49.2356 503.258 48.7527 502.558 48.86C501.859 48.9673 501.375 49.629 501.483 50.3265C501.626 51.2565 501.752 52.2044 501.841 53.1522C502.021 54.9764 502.11 56.8543 502.11 58.6964C502.11 59.6979 502.092 60.6994 502.039 61.701C502.003 62.4163 502.541 63.0065 503.258 63.0423C503.258 63.0423 503.276 63.0423 503.311 63.0423ZM394.657 58.3566C395.284 58.3566 395.822 57.9095 395.93 57.2835C396.557 53.492 397.436 49.7185 398.529 46.1058C398.744 45.4262 398.35 44.7108 397.669 44.4962C396.987 44.2816 396.27 44.6751 396.055 45.3547C394.926 49.0925 394.029 52.9555 393.384 56.8722C393.276 57.5697 393.743 58.2314 394.442 58.3566C394.513 58.3566 394.585 58.3566 394.657 58.3566ZM498.184 36.6092C498.364 36.6092 498.561 36.5735 498.722 36.484C499.367 36.18 499.636 35.411 499.35 34.7671C497.682 31.2082 495.639 27.7744 493.272 24.5373C492.86 23.965 492.053 23.8398 491.48 24.2512C490.906 24.6625 490.781 25.4673 491.193 26.0396C493.47 29.1336 495.424 32.4243 497.019 35.8402C497.234 36.341 497.7 36.6092 498.184 36.6092ZM403.172 32.6389C403.638 32.6389 404.086 32.3885 404.319 31.9593C406.148 28.5076 408.227 25.2706 410.504 22.3375C410.934 21.7831 410.827 20.9604 410.271 20.5312C409.715 20.102 408.891 20.2093 408.461 20.7637C406.112 23.8041 403.943 27.1663 402.043 30.7432C401.702 31.3691 401.953 32.156 402.581 32.478C402.76 32.6031 402.975 32.6389 403.172 32.6389ZM481.566 15.3269C481.943 15.3269 482.301 15.1659 482.552 14.8619C483 14.3075 482.929 13.5027 482.373 13.0556C479.271 10.4981 475.955 8.26256 472.495 6.40259C471.868 6.06279 471.079 6.29529 470.756 6.92124C470.416 7.54719 470.649 8.3341 471.276 8.65602C474.575 10.4266 477.766 12.5727 480.742 15.0228C480.992 15.2375 481.279 15.3269 481.566 15.3269ZM420.507 11.9467C420.776 11.9467 421.045 11.8573 421.278 11.6964C424.362 9.40716 427.678 7.52931 431.12 6.08067C431.783 5.81241 432.088 5.04338 431.801 4.39955C431.532 3.73783 430.761 3.43379 430.116 3.71994C426.477 5.24011 422.999 7.24316 419.736 9.63966C419.163 10.0689 419.037 10.8737 419.468 11.446C419.736 11.7679 420.113 11.9467 420.507 11.9467ZM457.329 3.50533C457.939 3.50533 458.476 3.07611 458.584 2.46804C458.727 1.77055 458.279 1.09094 457.58 0.94787C454.443 0.321918 451.288 0 448.168 0C447.326 0 446.483 0.0178843 445.641 0.0715373C444.924 0.107306 444.386 0.715373 444.422 1.43075C444.458 2.14612 445.067 2.68265 445.784 2.64688C446.573 2.61111 447.38 2.57534 448.168 2.57534C451.108 2.57534 454.102 2.87938 457.078 3.46956C457.15 3.50533 457.239 3.50533 457.329 3.50533Z" fill="#32C665"/>
<path d="M423.483 161.406C423.304 161.496 423.107 161.531 422.927 161.531C422.443 161.531 421.995 161.263 421.762 160.78C420.471 158.098 419.145 155.343 417.872 152.696L416.707 150.282C416.402 149.638 416.671 148.869 417.316 148.565C417.962 148.261 418.733 148.529 419.037 149.173L420.203 151.588C421.475 154.235 422.802 156.989 424.093 159.689C424.397 160.333 424.129 161.102 423.483 161.406Z" fill="#32C665"/>
<path d="M412.871 136.911C412.691 137 412.494 137.036 412.315 137.036C411.831 137.036 411.383 136.768 411.15 136.285C409.859 133.602 408.532 130.848 407.259 128.201L406.094 125.787C405.789 125.143 406.058 124.374 406.704 124.07C407.349 123.766 408.12 124.034 408.425 124.678L409.59 127.092C410.863 129.739 412.189 132.493 413.48 135.194C413.785 135.838 413.516 136.607 412.871 136.911Z" fill="#32C665"/>
<path d="M191.354 244.126C190.878 244.126 190.491 243.74 190.491 243.263V237.176C190.491 236.699 190.878 236.312 191.354 236.312C191.83 236.312 192.217 236.699 192.217 237.176V243.263C192.217 243.74 191.83 244.126 191.354 244.126Z" fill="#FFC400"/>
<path d="M194.4 241.084H188.315C187.839 241.084 187.452 240.697 187.452 240.221C187.452 239.744 187.839 239.357 188.315 239.357H194.4C194.876 239.357 195.263 239.744 195.263 240.221C195.263 240.697 194.876 241.084 194.4 241.084Z" fill="#FFC400"/>
<path d="M504.174 236.654C503.698 236.654 503.312 236.267 503.312 235.79V229.703C503.312 229.227 503.698 228.84 504.174 228.84C504.651 228.84 505.037 229.227 505.037 229.703V235.79C505.037 236.267 504.651 236.654 504.174 236.654Z" fill="#FFC400"/>
<path d="M507.22 233.611H501.135C500.659 233.611 500.272 233.224 500.272 232.748C500.272 232.271 500.659 231.885 501.135 231.885H507.22C507.697 231.885 508.083 232.271 508.083 232.748C508.083 233.224 507.697 233.611 507.22 233.611Z" fill="#FFC400"/>
<path d="M388.701 190.075C388.224 190.075 387.838 189.689 387.838 189.212V183.125C387.838 182.648 388.224 182.262 388.701 182.262C389.177 182.262 389.563 182.648 389.563 183.125V189.212C389.563 189.689 389.177 190.075 388.701 190.075Z" fill="#FFC400"/>
<path d="M391.747 187.033H385.662C385.185 187.033 384.799 186.646 384.799 186.17C384.799 185.693 385.185 185.307 385.662 185.307H391.747C392.223 185.307 392.609 185.693 392.609 186.17C392.609 186.646 392.223 187.033 391.747 187.033Z" fill="#FFC400"/>
<path d="M271.801 312.003C271.325 312.003 270.938 311.616 270.938 311.14V305.053C270.938 304.576 271.325 304.189 271.801 304.189C272.277 304.189 272.664 304.576 272.664 305.053V311.14C272.664 311.616 272.277 312.003 271.801 312.003Z" fill="#FFC400"/>
<path d="M274.847 308.961H268.762C268.286 308.961 267.899 308.574 267.899 308.097C267.899 307.621 268.286 307.234 268.762 307.234H274.847C275.323 307.234 275.71 307.621 275.71 308.097C275.71 308.574 275.323 308.961 274.847 308.961Z" fill="#FFC400"/>
<path d="M322.08 225.273C321.603 225.273 321.217 224.886 321.217 224.41V218.322C321.217 217.846 321.603 217.459 322.08 217.459C322.556 217.459 322.942 217.846 322.942 218.322V224.41C322.942 224.886 322.556 225.273 322.08 225.273Z" fill="#FFC400"/>
<path d="M325.126 222.23H319.041C318.564 222.23 318.178 221.843 318.178 221.367C318.178 220.891 318.564 220.504 319.041 220.504H325.126C325.602 220.504 325.988 220.891 325.988 221.367C325.988 221.843 325.602 222.23 325.126 222.23Z" fill="#FFC400"/>
<path d="M499.668 304.745L497.694 298.612C497.545 298.149 497.798 297.646 498.267 297.495C498.73 297.346 499.233 297.598 499.384 298.068L501.358 304.201C501.507 304.664 501.254 305.168 500.785 305.319C500.322 305.468 499.819 305.215 499.668 304.745Z" fill="#FF37AC"/>
<path d="M509.951 310.027C509.802 309.564 510.055 309.061 510.524 308.91L516.647 306.94C517.11 306.791 517.613 307.044 517.764 307.513C517.915 307.983 517.661 308.48 517.191 308.631L511.062 310.603C510.597 310.745 510.1 310.49 509.951 310.027Z" fill="#FF37AC"/>
<path d="M505.986 305.089C505.917 304.874 505.928 304.634 506.042 304.412L508.898 298.843C509.121 298.408 509.657 298.236 510.092 298.459C510.526 298.682 510.699 299.219 510.476 299.653L507.62 305.222C507.397 305.657 506.861 305.829 506.426 305.606C506.207 305.499 506.057 305.31 505.986 305.089Z" fill="#FF37AC"/>
<path d="M125.593 27.3976C129.205 23.791 129.205 17.9434 125.593 14.3367C121.982 10.7301 116.127 10.7301 112.516 14.3367C108.905 17.9434 108.905 23.791 112.516 27.3976C116.127 31.0043 121.982 31.0043 125.593 27.3976Z" fill="#FF37AC"/>
<path d="M127.831 12.0989C125.479 9.75077 122.367 8.46094 119.047 8.46094C115.736 8.46094 112.615 9.75077 110.264 12.0989C107.913 14.4471 106.621 17.5559 106.621 20.8715C106.621 24.1787 107.913 27.2958 110.264 29.644C112.615 31.9922 115.727 33.282 119.047 33.282C119.453 33.282 119.85 33.2655 120.247 33.2241C126.539 32.6205 131.473 27.3124 131.473 20.8715C131.473 17.5559 130.182 14.4471 127.831 12.0989ZM129.495 20.8715C129.495 26.2871 125.347 30.7519 120.057 31.2563C119.726 31.2894 119.387 31.3059 119.047 31.3059C116.257 31.3059 113.641 30.2228 111.663 28.2467C109.684 26.2706 108.6 23.6578 108.6 20.8715C108.6 18.0851 109.684 15.4723 111.663 13.4963C113.393 11.7682 115.628 10.7181 118.029 10.4866C118.368 10.4536 118.708 10.437 119.047 10.437C124.809 10.437 129.495 15.1168 129.495 20.8715Z" fill="#0142D3"/>
<path d="M122.301 21.9543V20.0443C122.301 18.2501 120.844 16.7949 119.048 16.7949C117.251 16.7949 115.794 18.2501 115.794 20.0443V21.9543C115.794 22.9878 115.513 23.3847 114.975 24.2776H123.121C122.591 23.3847 122.301 22.9878 122.301 21.9543Z" fill="white"/>
<path d="M119.054 25.9307C118.375 25.9307 117.829 25.385 117.829 24.707H120.28C120.28 25.3768 119.725 25.9307 119.054 25.9307Z" fill="white"/>
<path d="M119.058 15.8027C118.511 15.8027 118.064 16.2492 118.064 16.7949C118.064 17.3406 118.511 17.7871 119.058 17.7871C119.604 17.7871 120.051 17.3406 120.051 16.7949C120.051 16.2492 119.604 15.8027 119.058 15.8027ZM119.058 17.3985C118.727 17.3985 118.462 17.1339 118.462 16.8032C118.462 16.4725 118.727 16.2079 119.058 16.2079C119.389 16.2079 119.654 16.4725 119.654 16.8032C119.654 17.1256 119.381 17.3985 119.058 17.3985Z" fill="white"/>
<path d="M327.092 56.7927C325.64 56.7927 324.463 55.6162 324.463 54.1649C324.463 52.7136 325.64 51.5371 327.092 51.5371C328.544 51.5371 329.722 52.7136 329.722 54.1649C329.729 55.6162 328.544 56.7927 327.092 56.7927ZM327.092 52.615C326.239 52.615 325.541 53.3125 325.541 54.1649C325.541 55.0174 326.239 55.7148 327.092 55.7148C327.945 55.7148 328.643 55.0174 328.643 54.1649C328.65 53.3054 327.952 52.615 327.092 52.615Z" fill="#3A85FF"/>
<path d="M333.884 188.713C332.432 188.713 331.255 187.536 331.255 186.085C331.255 184.634 332.432 183.457 333.884 183.457C335.336 183.457 336.514 184.634 336.514 186.085C336.521 187.536 335.336 188.713 333.884 188.713ZM333.884 184.535C333.031 184.535 332.333 185.232 332.333 186.085C332.333 186.937 333.031 187.635 333.884 187.635C334.737 187.635 335.435 186.937 335.435 186.085C335.442 185.225 334.744 184.535 333.884 184.535Z" fill="#3A85FF"/>
<path d="M410.055 303.16C408.603 303.16 407.426 301.983 407.426 300.532C407.426 299.081 408.603 297.904 410.055 297.904C411.507 297.904 412.684 299.081 412.684 300.532C412.691 301.983 411.507 303.16 410.055 303.16ZM410.055 298.982C409.202 298.982 408.504 299.68 408.504 300.532C408.504 301.385 409.202 302.082 410.055 302.082C410.908 302.082 411.606 301.385 411.606 300.532C411.613 299.673 410.915 298.982 410.055 298.982Z" fill="#3A85FF"/>
<path d="M215.221 294.361C213.769 294.361 212.592 293.185 212.592 291.733C212.592 290.282 213.769 289.105 215.221 289.105C216.673 289.105 217.85 290.282 217.85 291.733C217.857 293.185 216.673 294.361 215.221 294.361ZM215.221 290.183C214.368 290.183 213.67 290.881 213.67 291.733C213.67 292.586 214.368 293.283 215.221 293.283C216.074 293.283 216.772 292.586 216.772 291.733C216.779 290.874 216.081 290.183 215.221 290.183Z" fill="#3A85FF"/>
<path d="M437.6 131.277C436.148 131.277 434.971 130.101 434.971 128.649C434.971 127.198 436.148 126.021 437.6 126.021C439.052 126.021 440.229 127.198 440.229 128.649C440.236 130.101 439.052 131.277 437.6 131.277ZM437.6 127.099C436.747 127.099 436.049 127.797 436.049 128.649C436.049 129.502 436.747 130.199 437.6 130.199C438.453 130.199 439.151 129.502 439.151 128.649C439.158 127.79 438.46 127.099 437.6 127.099Z" fill="#3A85FF"/>
<path d="M308.547 17.7947C307.095 17.7947 305.918 16.6182 305.918 15.1669C305.918 13.7156 307.095 12.5391 308.547 12.5391C309.999 12.5391 311.177 13.7156 311.177 15.1669C311.184 16.6182 309.999 17.7947 308.547 17.7947ZM308.547 13.617C307.694 13.617 306.996 14.3144 306.996 15.1669C306.996 16.0193 307.694 16.7168 308.547 16.7168C309.4 16.7168 310.098 16.0193 310.098 15.1669C310.105 14.3074 309.407 13.617 308.547 13.617Z" fill="#3A85FF"/>
<path d="M53.0717 193.802C51.6196 193.802 50.4424 192.626 50.4424 191.175C50.4424 189.723 51.6196 188.547 53.0717 188.547C54.5238 188.547 55.701 189.723 55.701 191.175C55.7081 192.626 54.5238 193.802 53.0717 193.802ZM53.0717 189.625C52.2188 189.625 51.5209 190.322 51.5209 191.175C51.5209 192.027 52.2188 192.725 53.0717 192.725C53.9247 192.725 54.6225 192.027 54.6225 191.175C54.6296 190.315 53.9317 189.625 53.0717 189.625Z" fill="#3A85FF"/>
<path d="M489.936 320.761C488.797 315.966 491.768 311.157 496.572 310.02C501.377 308.883 506.195 311.849 507.334 316.644C508.473 321.439 505.502 326.248 500.697 327.385C495.893 328.522 491.075 325.556 489.936 320.761Z" fill="#32C665"/>
<path d="M346.829 83.3888C342.809 79.376 342.809 72.8701 346.829 68.8573C350.85 64.8446 357.368 64.8446 361.388 68.8573C365.409 72.8701 365.409 79.376 361.388 83.3888C357.368 87.4015 350.85 87.4015 346.829 83.3888Z" fill="#FDD14C"/>
<path d="M39.9394 318.387C32.5483 318.387 26.5566 312.395 26.5566 305.004C26.5566 297.613 32.5483 291.621 39.9394 291.621C47.3306 291.621 53.3223 297.613 53.3223 305.004C53.3223 312.395 47.3306 318.387 39.9394 318.387Z" fill="#F64E4E"/>
</g>
</svg>
