<svg width="351" height="286" viewBox="0 0 351 286" fill="none" xmlns="http://www.w3.org/2000/svg">
<path fill-rule="evenodd" clip-rule="evenodd" d="M68.0072 285.101H296.486C306.445 285.101 314.575 276.97 314.575 267.011C314.575 257.053 306.445 248.922 296.486 248.922H68.0072C58.0487 248.922 49.918 257.053 49.918 267.011C49.918 276.97 58.0487 285.101 68.0072 285.101Z" fill="black"/>
<path fill-rule="evenodd" clip-rule="evenodd" d="M67.2513 72H264.342C274.301 72 282.431 80.1307 282.431 90.0892C282.431 100.048 274.301 108.178 264.342 108.178H67.2513C57.2928 108.178 49.1621 100.048 49.1621 90.0892C49.1621 80.1307 57.2928 72 67.2513 72Z" fill="white"/>
<path fill-rule="evenodd" clip-rule="evenodd" d="M264.406 143.223H100.469C110.427 143.223 118.558 135.092 118.558 125.134C118.558 115.175 110.427 107.045 100.469 107.045H264.469C254.511 107.045 246.38 115.175 246.38 125.134C246.38 135.092 254.511 143.223 264.406 143.223Z" fill="white"/>
<path fill-rule="evenodd" clip-rule="evenodd" d="M18.0892 142.151H281.99C291.949 142.151 300.079 150.282 300.079 160.24C300.079 170.199 291.949 178.329 281.99 178.329H18.0892C8.1307 178.329 0 170.199 0 160.24C0 150.282 8.1307 142.151 18.0892 142.151Z" fill="white"/>
<path fill-rule="evenodd" clip-rule="evenodd" d="M278.272 213.436H70.5293C80.4878 213.436 88.6185 205.305 88.6185 195.347C88.6185 185.388 80.4878 177.257 70.5293 177.257H278.335C268.376 177.257 260.246 185.388 260.246 195.347C260.246 205.305 268.376 213.436 278.272 213.436Z" fill="white"/>
<path fill-rule="evenodd" clip-rule="evenodd" d="M66.6205 212.869H332.412C342.371 212.869 350.502 221 350.502 230.958C350.502 240.917 342.371 249.047 332.412 249.047H66.6205C56.662 249.047 48.5312 240.917 48.5312 230.958C48.5312 221 56.662 212.869 66.6205 212.869Z" fill="white"/>
<path fill-rule="evenodd" clip-rule="evenodd" d="M236.484 87.8837H239.006V140.954H236.484V87.8837Z" fill="#50BDD9"/>
<path fill-rule="evenodd" clip-rule="evenodd" d="M237.744 84.8575C239.383 84.8575 240.77 86.1811 240.77 87.8829C240.77 89.5217 239.446 90.9083 237.744 90.9083C236.105 90.9083 234.719 89.5847 234.719 87.8829C234.782 86.2442 236.105 84.8575 237.744 84.8575Z" fill="#50BDD9"/>
<path fill-rule="evenodd" clip-rule="evenodd" d="M125.428 87.8837H127.949V140.954H125.428V87.8837Z" fill="#50BDD9"/>
<path fill-rule="evenodd" clip-rule="evenodd" d="M126.687 84.8575C128.326 84.8575 129.713 86.1811 129.713 87.8829C129.713 89.5217 128.389 90.9083 126.687 90.9083C124.986 90.9083 123.662 89.5847 123.662 87.8829C123.725 86.2442 125.049 84.8575 126.687 84.8575Z" fill="#50BDD9"/>
<path fill-rule="evenodd" clip-rule="evenodd" d="M182.216 235.621H146.73C146.73 255.223 162.614 271.106 182.216 271.106C201.818 271.106 217.701 255.223 217.701 235.621H182.216Z" fill="#3A85FF"/>
<path fill-rule="evenodd" clip-rule="evenodd" d="M182.216 237.513H159.904C159.904 250.939 169.926 261.779 182.216 261.779C194.507 261.779 204.529 250.939 204.529 237.513H182.216Z" fill="#0062FF"/>
<path fill-rule="evenodd" clip-rule="evenodd" d="M176.859 217.407V267.073C176.859 270.036 179.254 272.431 182.217 272.431C185.179 272.431 187.574 270.036 187.574 267.073V217.407C187.574 214.444 185.179 212.049 182.217 212.049C179.317 212.049 176.859 214.444 176.859 217.407Z" fill="#50BDD9"/>
<path fill-rule="evenodd" clip-rule="evenodd" d="M176.859 211.923V261.59C176.859 264.552 179.254 266.947 182.217 266.947C185.179 266.947 187.574 264.552 187.574 261.59V211.923C187.574 208.961 185.179 206.566 182.217 206.566C179.317 206.566 176.859 208.961 176.859 211.923Z" fill="#50BDD9"/>
<path d="M104.375 262.157C104.375 266.317 107.779 269.72 111.938 269.72C116.098 269.72 119.502 266.317 119.502 262.157C119.502 257.367 121.456 253.081 124.544 249.992C127.633 246.904 131.982 244.95 136.709 244.95C141.499 244.95 145.785 246.904 148.873 249.992C151.962 253.081 153.916 257.43 153.916 262.157C153.916 266.317 157.319 269.72 161.479 269.72C165.639 269.72 169.042 266.317 169.042 262.157C169.042 253.207 165.45 245.139 159.588 239.278C153.726 233.416 145.659 229.823 136.709 229.823C127.759 229.823 119.691 233.416 113.829 239.278C107.968 245.139 104.375 253.207 104.375 262.157Z" fill="#59C6DF"/>
<path d="M112.316 269.721C116.287 269.532 119.438 266.191 119.438 262.157C119.438 257.367 121.392 253.081 124.481 249.993C127.569 246.904 131.918 244.951 136.645 244.951C141.435 244.951 145.721 246.904 148.81 249.993C151.898 253.081 153.852 257.43 153.852 262.157C153.852 266.191 157.004 269.469 160.974 269.721C161.226 268.271 161.416 266.758 161.416 265.183C161.416 251.506 150.322 240.412 136.645 240.412C122.968 240.412 111.875 251.506 111.875 265.183C111.938 266.695 112.064 268.208 112.316 269.721Z" fill="#4AADC5"/>
<path d="M104.375 262.157C104.375 262.598 104.438 262.976 104.501 263.418H119.376C119.439 263.039 119.502 262.598 119.502 262.157C119.502 261.716 119.502 261.338 119.565 260.896H104.438C104.375 261.338 104.375 261.716 104.375 262.157ZM121.204 254.657C121.582 253.9 122.023 253.144 122.464 252.451L109.354 244.887C108.913 245.58 108.472 246.337 108.094 247.093L121.204 254.657ZM127.002 247.912C127.696 247.471 128.389 247.03 129.145 246.652L121.582 233.542C120.825 233.92 120.132 234.361 119.439 234.803L127.002 247.912ZM135.448 244.95C135.889 244.95 136.268 244.887 136.709 244.887C137.15 244.887 137.528 244.887 137.969 244.95V229.823C137.528 229.823 137.15 229.823 136.709 229.823C136.268 229.823 135.889 229.823 135.448 229.823V244.95ZM144.209 246.652C144.965 247.03 145.722 247.471 146.415 247.912L153.979 234.803C153.285 234.361 152.529 233.92 151.773 233.542L144.209 246.652ZM150.953 252.451C151.394 253.144 151.836 253.837 152.214 254.594L165.324 247.03C164.946 246.274 164.504 245.58 164.063 244.887L150.953 252.451ZM153.916 260.896C153.916 261.338 153.979 261.716 153.979 262.157C153.979 262.598 154.042 262.976 154.105 263.418H169.042C169.105 263.039 169.168 262.598 169.168 262.157C169.168 261.716 169.168 261.338 169.168 260.896H153.916Z" fill="#0062FF"/>
<path d="M112.002 263.417H119.376C119.439 263.039 119.502 262.598 119.502 262.157C119.502 261.716 119.502 261.337 119.565 260.896H112.317C112.128 261.716 112.065 262.535 112.002 263.417ZM136.709 240.349C137.15 240.349 137.529 240.349 137.97 240.412V245.013C137.529 245.013 137.15 244.95 136.709 244.95C136.268 244.95 135.89 244.95 135.449 245.013V240.412C135.89 240.349 136.268 240.349 136.709 240.349ZM146.668 242.429C147.424 242.744 148.18 243.122 148.937 243.563L146.416 247.912C145.722 247.471 144.966 247.03 144.21 246.652L146.668 242.429ZM155.996 249.551C156.5 250.181 157.004 250.875 157.509 251.568L152.277 254.593C151.899 253.837 151.521 253.081 151.017 252.45L155.996 249.551ZM161.164 260.896C161.29 261.716 161.416 262.535 161.479 263.417H154.042C153.979 263.039 153.916 262.598 153.916 262.157C153.916 261.716 153.916 261.337 153.853 260.896H161.164ZM115.91 251.631C116.351 250.938 116.855 250.244 117.422 249.614L122.465 252.513C122.024 253.207 121.582 253.963 121.204 254.719L115.91 251.631ZM124.545 243.563C125.301 243.122 125.994 242.807 126.814 242.429L129.209 246.652C128.452 247.03 127.696 247.408 127.066 247.912L124.545 243.563Z" fill="#3A85FF"/>
<path fill-rule="evenodd" clip-rule="evenodd" d="M102.358 272.304H82.5039C82.5039 261.337 91.3909 252.45 102.358 252.45C113.325 252.45 122.212 261.337 122.212 272.304H102.358Z" fill="#0062FF"/>
<path fill-rule="evenodd" clip-rule="evenodd" d="M102.358 272.306H82.5039C82.5039 270.919 82.63 269.596 82.8821 268.272H121.771C122.023 269.596 122.149 270.919 122.149 272.306H102.358Z" fill="#50BDD9"/>
<path fill-rule="evenodd" clip-rule="evenodd" d="M112.758 261.338C111.308 261.338 110.174 262.473 110.174 263.922C110.174 265.372 111.308 266.506 112.758 266.506C114.208 266.506 115.342 265.372 115.342 263.922C115.342 262.473 114.208 261.338 112.758 261.338Z" fill="#50BDD9"/>
<path fill-rule="evenodd" clip-rule="evenodd" d="M112.758 261.338C111.497 261.338 110.426 262.221 110.174 263.418C110.426 264.616 111.434 265.498 112.758 265.498C114.019 265.498 115.09 264.616 115.342 263.418C115.09 262.221 114.019 261.338 112.758 261.338Z" fill="#0142D3"/>
<path fill-rule="evenodd" clip-rule="evenodd" d="M103.809 261.338C102.359 261.338 101.225 262.473 101.225 263.922C101.225 265.372 102.359 266.506 103.809 266.506C105.258 266.506 106.393 265.372 106.393 263.922C106.393 262.473 105.258 261.338 103.809 261.338Z" fill="#50BDD9"/>
<path fill-rule="evenodd" clip-rule="evenodd" d="M94.8576 261.338C93.408 261.338 92.2734 262.473 92.2734 263.922C92.2734 265.372 93.408 266.506 94.8576 266.506C96.3073 266.506 97.4418 265.372 97.4418 263.922C97.4418 262.473 96.2442 261.338 94.8576 261.338Z" fill="#50BDD9"/>
<path fill-rule="evenodd" clip-rule="evenodd" d="M103.809 261.338C102.548 261.338 101.477 262.221 101.225 263.418C101.477 264.616 102.485 265.498 103.809 265.498C105.069 265.498 106.141 264.616 106.393 263.418C106.141 262.221 105.069 261.338 103.809 261.338Z" fill="#0142D3"/>
<path fill-rule="evenodd" clip-rule="evenodd" d="M94.8576 261.338C93.597 261.338 92.5256 262.221 92.2734 263.418C92.5256 264.616 93.534 265.498 94.8576 265.498C96.1182 265.498 97.1897 264.616 97.4418 263.418C97.1897 262.221 96.1182 261.338 94.8576 261.338Z" fill="#0142D3"/>
<path d="M260.119 262.157C260.119 266.317 256.715 269.72 252.555 269.72C248.395 269.72 244.992 266.317 244.992 262.157C244.992 257.367 243.038 253.081 239.949 249.992C236.861 246.904 232.512 244.95 227.785 244.95C222.995 244.95 218.709 246.904 215.62 249.992C212.532 253.081 210.578 257.43 210.578 262.157C210.578 266.317 207.175 269.72 203.015 269.72C198.855 269.72 195.451 266.317 195.451 262.157C195.451 253.207 199.044 245.139 204.905 239.278C210.767 233.416 218.835 229.823 227.785 229.823C236.735 229.823 244.803 233.416 250.664 239.278C256.526 245.139 260.119 253.207 260.119 262.157Z" fill="#59C6DF"/>
<path d="M252.115 269.721C248.144 269.532 244.993 266.191 244.993 262.157C244.993 257.367 243.039 253.081 239.95 249.993C236.862 246.904 232.513 244.951 227.786 244.951C222.996 244.951 218.71 246.904 215.621 249.993C212.533 253.081 210.579 257.43 210.579 262.157C210.579 266.191 207.428 269.469 203.457 269.721C203.205 268.271 203.016 266.758 203.016 265.183C203.016 251.506 214.109 240.412 227.786 240.412C241.463 240.412 252.556 251.506 252.556 265.183C252.556 266.695 252.43 268.208 252.115 269.721Z" fill="#4AADC5"/>
<path d="M260.12 262.157C260.12 262.598 260.057 262.976 259.994 263.418H245.056C244.993 263.039 244.93 262.598 244.93 262.157C244.93 261.716 244.93 261.338 244.867 260.896H259.994C260.12 261.338 260.12 261.716 260.12 262.157ZM243.291 254.657C242.913 253.9 242.472 253.144 242.03 252.451L255.14 244.887C255.582 245.58 256.023 246.337 256.401 247.093L243.291 254.657ZM237.429 247.912C236.736 247.471 236.043 247.03 235.286 246.652L242.85 233.542C243.606 233.92 244.299 234.361 244.993 234.803L237.429 247.912ZM229.047 244.95C228.605 244.95 228.227 244.887 227.786 244.887C227.345 244.887 226.967 244.887 226.525 244.95V229.823C226.967 229.823 227.345 229.823 227.786 229.823C228.227 229.823 228.605 229.823 229.047 229.823V244.95ZM220.222 246.652C219.466 247.03 218.71 247.471 218.016 247.912L210.453 234.803C211.146 234.361 211.903 233.92 212.659 233.542L220.222 246.652ZM213.478 252.451C213.037 253.144 212.596 253.837 212.218 254.594L199.108 247.03C199.486 246.274 199.927 245.58 200.368 244.887L213.478 252.451ZM210.579 260.896C210.579 261.338 210.516 261.716 210.516 262.157C210.516 262.598 210.453 262.976 210.39 263.418H195.452C195.389 263.039 195.326 262.598 195.326 262.157C195.326 261.716 195.326 261.338 195.326 260.896H210.579Z" fill="#0062FF"/>
<path d="M252.493 263.417H245.119C245.056 263.039 244.993 262.598 244.993 262.157C244.993 261.716 244.993 261.337 244.93 260.896H252.178C252.304 261.716 252.43 262.535 252.493 263.417ZM227.786 240.349C227.345 240.349 226.967 240.349 226.525 240.412V245.013C226.967 245.013 227.345 244.95 227.786 244.95C228.227 244.95 228.605 244.95 229.046 245.013V240.412C228.605 240.349 228.164 240.349 227.786 240.349ZM217.827 242.429C217.071 242.744 216.315 243.122 215.558 243.563L218.079 247.912C218.773 247.471 219.529 247.03 220.285 246.652L217.827 242.429ZM208.499 249.551C207.995 250.181 207.491 250.875 206.986 251.568L212.218 254.593C212.596 253.837 212.974 253.081 213.478 252.45L208.499 249.551ZM203.331 260.896C203.205 261.716 203.079 262.535 203.016 263.417H210.39C210.453 263.039 210.516 262.598 210.516 262.157C210.516 261.716 210.516 261.337 210.579 260.896H203.331ZM248.522 251.631C248.081 250.938 247.577 250.244 247.01 249.614L241.967 252.513C242.409 253.207 242.85 253.963 243.228 254.719L248.522 251.631ZM239.95 243.563C239.194 243.122 238.501 242.807 237.681 242.429L235.286 246.652C236.043 247.03 236.799 247.408 237.429 247.912L239.95 243.563Z" fill="#3A85FF"/>
<path fill-rule="evenodd" clip-rule="evenodd" d="M262.135 272.304H281.989C281.989 261.337 273.102 252.45 262.135 252.45C251.168 252.45 242.281 261.337 242.281 272.304H262.135Z" fill="#0062FF"/>
<path fill-rule="evenodd" clip-rule="evenodd" d="M262.137 272.306H281.991C281.991 270.919 281.865 269.596 281.613 268.272H242.724C242.472 269.596 242.346 270.919 242.346 272.306H262.137Z" fill="#50BDD9"/>
<path fill-rule="evenodd" clip-rule="evenodd" d="M251.737 261.338C253.187 261.338 254.321 262.473 254.321 263.922C254.321 265.372 253.187 266.506 251.737 266.506C250.287 266.506 249.153 265.372 249.153 263.922C249.09 262.473 250.287 261.338 251.737 261.338Z" fill="#50BDD9"/>
<path fill-rule="evenodd" clip-rule="evenodd" d="M251.737 261.338C252.997 261.338 254.069 262.221 254.321 263.418C254.069 264.616 253.06 265.498 251.737 265.498C250.476 265.498 249.404 264.616 249.152 263.418C249.404 262.221 250.413 261.338 251.737 261.338Z" fill="#0142D3"/>
<path fill-rule="evenodd" clip-rule="evenodd" d="M260.686 261.338C262.136 261.338 263.27 262.473 263.27 263.922C263.27 265.372 262.136 266.506 260.686 266.506C259.237 266.506 258.102 265.372 258.102 263.922C258.039 262.473 259.237 261.338 260.686 261.338Z" fill="#50BDD9"/>
<path fill-rule="evenodd" clip-rule="evenodd" d="M269.637 261.338C271.087 261.338 272.221 262.473 272.221 263.922C272.221 265.372 271.087 266.506 269.637 266.506C268.187 266.506 267.053 265.372 267.053 263.922C267.053 262.473 268.187 261.338 269.637 261.338Z" fill="#50BDD9"/>
<path fill-rule="evenodd" clip-rule="evenodd" d="M260.686 261.338C261.946 261.338 263.018 262.221 263.27 263.418C263.018 264.616 262.009 265.498 260.686 265.498C259.425 265.498 258.354 264.616 258.102 263.418C258.354 262.221 259.425 261.338 260.686 261.338Z" fill="#0142D3"/>
<path fill-rule="evenodd" clip-rule="evenodd" d="M269.637 261.338C270.897 261.338 271.969 262.221 272.221 263.418C271.969 264.616 270.961 265.498 269.637 265.498C268.376 265.498 267.305 264.616 267.053 263.418C267.305 262.221 268.376 261.338 269.637 261.338Z" fill="#0142D3"/>
<path d="M226.21 236.757C222.05 236.757 218.646 233.354 218.646 229.194C218.646 225.034 222.05 221.631 226.21 221.631C231 221.631 235.286 219.677 238.374 216.588C241.463 213.5 243.417 209.151 243.417 204.424C243.417 199.633 241.463 195.348 238.374 192.259C235.286 189.171 230.937 187.217 226.21 187.217C222.05 187.217 218.646 183.813 218.646 179.653C218.646 175.494 222.05 172.09 226.21 172.09C235.16 172.09 243.228 175.683 249.089 181.544C254.951 187.406 258.544 195.474 258.544 204.424C258.544 213.374 254.951 221.441 249.089 227.303C243.228 233.102 235.16 236.757 226.21 236.757Z" fill="#50BDD9"/>
<path d="M218.646 228.752C218.836 224.781 222.176 221.63 226.21 221.63C231 221.63 235.286 219.676 238.374 216.588C241.463 213.499 243.417 209.15 243.417 204.423C243.417 199.633 241.463 195.347 238.374 192.259C235.286 189.17 230.937 187.216 226.21 187.216C222.176 187.216 218.899 184.065 218.646 180.094C220.096 179.842 221.609 179.653 223.185 179.653C236.862 179.653 247.955 190.746 247.955 204.423C247.955 218.1 236.862 229.193 223.185 229.193C221.672 229.193 220.159 229.004 218.646 228.752Z" fill="#50BDD9"/>
<path d="M226.21 236.756C225.769 236.756 225.39 236.693 224.949 236.63V221.692C225.327 221.629 225.769 221.566 226.21 221.566C226.651 221.566 227.029 221.566 227.47 221.503V236.63C227.029 236.756 226.651 236.756 226.21 236.756ZM233.71 219.865C234.467 219.486 235.223 219.045 235.916 218.604L243.48 231.714C242.786 232.155 242.03 232.596 241.274 232.975L233.71 219.865ZM240.454 214.066C240.895 213.373 241.337 212.679 241.715 211.923L254.825 219.486C254.447 220.243 254.005 220.936 253.564 221.629L240.454 214.066ZM243.417 205.62C243.417 205.179 243.48 204.801 243.48 204.36C243.48 203.918 243.48 203.54 243.417 203.099H258.543C258.543 203.54 258.543 203.918 258.543 204.36C258.543 204.801 258.543 205.179 258.543 205.62H243.417ZM241.715 196.859C241.337 196.103 240.895 195.346 240.454 194.653L253.564 187.09C254.005 187.783 254.447 188.539 254.825 189.296L241.715 196.859ZM235.916 190.115C235.223 189.674 234.53 189.233 233.773 188.854L241.337 175.744C242.093 176.123 242.786 176.564 243.48 177.005L235.916 190.115ZM227.47 187.216C227.029 187.216 226.651 187.153 226.21 187.153C225.769 187.153 225.39 187.09 224.949 187.027V172.089C225.327 172.026 225.769 171.963 226.21 171.963C226.651 171.963 227.029 171.963 227.47 171.963V187.216Z" fill="#0062FF"/>
<path d="M224.949 229.13V221.756C225.327 221.693 225.769 221.63 226.21 221.63C226.651 221.63 227.029 221.63 227.47 221.567V228.815C226.651 228.941 225.832 229.067 224.949 229.13ZM248.018 204.36C248.018 203.919 248.018 203.541 247.955 203.1H243.354C243.354 203.541 243.417 203.919 243.417 204.36C243.417 204.801 243.417 205.179 243.354 205.621H247.955C248.018 205.242 248.018 204.801 248.018 204.36ZM245.938 194.465C245.623 193.708 245.244 192.952 244.803 192.196L240.454 194.717C240.895 195.41 241.337 196.166 241.715 196.923L245.938 194.465ZM238.816 185.073C238.185 184.569 237.492 184.065 236.799 183.561L233.773 188.792C234.53 189.17 235.286 189.548 235.916 190.053L238.816 185.073ZM227.47 179.968C226.651 179.842 225.832 179.716 224.949 179.653V187.027C225.327 187.09 225.769 187.153 226.21 187.153C226.651 187.153 227.029 187.153 227.47 187.216V179.968ZM236.736 225.16C237.429 224.718 238.122 224.214 238.752 223.647L235.853 218.605C235.16 219.046 234.404 219.487 233.647 219.865L236.736 225.16ZM244.803 216.588C245.244 215.831 245.56 215.138 245.938 214.319L241.715 211.924C241.337 212.68 240.959 213.436 240.454 214.066L244.803 216.588Z" fill="#3A85FF"/>
<path d="M138.285 236.757C142.445 236.757 145.848 233.354 145.848 229.194C145.848 225.034 142.445 221.631 138.285 221.631C133.495 221.631 129.209 219.677 126.12 216.588C123.032 213.5 121.078 209.151 121.078 204.424C121.078 199.633 123.032 195.348 126.12 192.259C129.209 189.171 133.558 187.217 138.285 187.217C142.445 187.217 145.848 183.813 145.848 179.653C145.848 175.494 142.445 172.09 138.285 172.09C129.335 172.09 121.267 175.683 115.405 181.544C109.544 187.406 105.951 195.474 105.951 204.424C105.951 213.374 109.544 221.441 115.405 227.303C121.204 233.102 129.335 236.757 138.285 236.757Z" fill="#50BDD9"/>
<path d="M145.785 228.752C145.596 224.781 142.255 221.63 138.221 221.63C133.431 221.63 129.145 219.676 126.057 216.588C122.969 213.499 121.015 209.15 121.015 204.423C121.015 199.633 122.969 195.347 126.057 192.259C129.145 189.17 133.494 187.216 138.221 187.216C142.255 187.216 145.533 184.065 145.785 180.094C144.335 179.842 142.823 179.653 141.247 179.653C127.57 179.653 116.477 190.746 116.477 204.423C116.477 218.1 127.57 229.193 141.247 229.193C142.823 229.193 144.335 229.004 145.785 228.752Z" fill="#50BDD9"/>
<path d="M138.285 236.756C138.726 236.756 139.104 236.693 139.545 236.63V221.692C139.167 221.629 138.726 221.566 138.285 221.566C137.844 221.566 137.466 221.566 137.024 221.503V236.63C137.402 236.756 137.844 236.756 138.285 236.756ZM130.721 219.865C129.965 219.486 129.209 219.045 128.515 218.604L120.952 231.714C121.645 232.155 122.402 232.596 123.158 232.975L130.721 219.865ZM123.977 214.066C123.536 213.373 123.095 212.679 122.717 211.923L109.607 219.486C109.985 220.243 110.426 220.936 110.867 221.629L123.977 214.066ZM121.078 205.62C121.078 205.179 121.015 204.801 121.015 204.36C121.015 203.918 121.015 203.54 121.078 203.099H105.951C105.951 203.54 105.951 203.918 105.951 204.36C105.951 204.801 105.951 205.179 105.951 205.62H121.078ZM122.717 196.859C123.095 196.103 123.536 195.346 123.977 194.653L110.867 187.09C110.426 187.783 109.985 188.539 109.607 189.296L122.717 196.859ZM128.578 190.115C129.272 189.674 129.965 189.233 130.721 188.854L123.158 175.744C122.402 176.123 121.708 176.564 121.015 177.005L128.578 190.115ZM137.024 187.216C137.466 187.216 137.844 187.153 138.285 187.153C138.726 187.153 139.104 187.09 139.545 187.027V172.089C139.167 172.026 138.726 171.963 138.285 171.963C137.844 171.963 137.466 171.963 137.024 171.963V187.216Z" fill="#0062FF"/>
<path d="M139.545 229.13V221.756C139.167 221.693 138.726 221.63 138.284 221.63C137.843 221.63 137.465 221.63 137.024 221.567V228.815C137.843 228.941 138.663 229.067 139.545 229.13ZM116.477 204.36C116.477 203.919 116.477 203.541 116.54 203.1H121.141C121.141 203.541 121.078 203.919 121.078 204.36C121.078 204.801 121.078 205.179 121.141 205.621H116.54C116.477 205.242 116.477 204.801 116.477 204.36ZM118.557 194.465C118.872 193.708 119.25 192.952 119.691 192.196L124.04 194.717C123.599 195.41 123.158 196.166 122.779 196.923L118.557 194.465ZM125.679 185.073C126.309 184.569 127.002 184.065 127.696 183.561L130.721 188.792C129.965 189.17 129.208 189.548 128.578 190.053L125.679 185.073ZM137.024 179.968C137.843 179.842 138.663 179.716 139.545 179.653V187.027C139.167 187.09 138.726 187.153 138.284 187.153C137.843 187.153 137.465 187.153 137.024 187.216V179.968ZM127.696 225.16C127.002 224.718 126.309 224.214 125.679 223.647L128.578 218.605C129.271 219.046 130.028 219.487 130.784 219.865L127.696 225.16ZM119.691 216.588C119.25 215.831 118.935 215.138 118.557 214.319L122.779 211.924C123.158 212.68 123.536 213.436 124.04 214.066L119.691 216.588Z" fill="#3A85FF"/>
<path fill-rule="evenodd" clip-rule="evenodd" d="M143.895 169.758H220.537V165.472C220.537 163.14 218.584 161.186 216.251 161.186H148.18C145.848 161.186 143.895 163.14 143.895 165.472V169.758Z" fill="#50BDD9"/>
<path fill-rule="evenodd" clip-rule="evenodd" d="M148.684 169.758H215.809V165.472C215.809 163.14 213.855 161.186 211.523 161.186H152.97C150.637 161.186 148.684 163.14 148.684 165.472V169.758Z" fill="#0062FF"/>
<path fill-rule="evenodd" clip-rule="evenodd" d="M141.689 166.67H222.744C226.399 166.67 229.425 169.695 229.425 173.351V231.085C229.425 234.741 226.399 237.766 222.744 237.766H141.689C138.033 237.766 135.008 234.741 135.008 231.085V173.351C135.071 169.695 138.033 166.67 141.689 166.67Z" fill="#50BDD9"/>
<path fill-rule="evenodd" clip-rule="evenodd" d="M169.547 155.765H194.947C196.46 155.765 197.72 157.025 197.72 158.538C197.72 160.051 196.46 161.311 194.947 161.311H169.547C168.034 161.311 166.773 160.051 166.773 158.538C166.773 157.025 168.034 155.765 169.547 155.765Z" fill="#0142D3"/>
<path fill-rule="evenodd" clip-rule="evenodd" d="M169.547 155.765H173.328C171.816 155.765 170.555 157.025 170.555 158.538C170.555 160.051 171.816 161.311 173.328 161.311H169.547C168.034 161.311 166.773 160.051 166.773 158.538C166.773 157.025 168.034 155.765 169.547 155.765Z" fill="#50BDD9"/>
<path fill-rule="evenodd" clip-rule="evenodd" d="M169.547 155.828H194.947C196.46 155.828 197.72 154.567 197.72 153.054C197.72 151.542 196.46 150.281 194.947 150.281H169.547C168.034 150.281 166.773 151.542 166.773 153.054C166.773 154.63 168.034 155.828 169.547 155.828Z" fill="#0142D3"/>
<path fill-rule="evenodd" clip-rule="evenodd" d="M194.948 155.765H191.166C192.679 155.765 193.939 157.025 193.939 158.538C193.939 160.051 192.679 161.311 191.166 161.311H194.948C196.46 161.311 197.721 160.051 197.721 158.538C197.721 157.025 196.46 155.765 194.948 155.765Z" fill="#50BDD9"/>
<path fill-rule="evenodd" clip-rule="evenodd" d="M169.547 150.345H173.328C171.816 150.345 170.555 151.605 170.555 153.118C170.555 154.631 171.816 155.891 173.328 155.891H169.547C168.034 155.891 166.773 154.631 166.773 153.118C166.773 151.605 168.034 150.345 169.547 150.345Z" fill="#50BDD9"/>
<path fill-rule="evenodd" clip-rule="evenodd" d="M194.948 150.345H191.166C192.679 150.345 193.939 151.605 193.939 153.118C193.939 154.631 192.679 155.891 191.166 155.891H194.948C196.46 155.891 197.721 154.631 197.721 153.118C197.721 151.605 196.46 150.345 194.948 150.345Z" fill="#50BDD9"/>
<path fill-rule="evenodd" clip-rule="evenodd" d="M145.722 166.67H218.772C222.428 166.67 225.453 169.695 225.453 173.351V231.085C225.453 234.741 222.428 237.766 218.772 237.766H145.722C142.066 237.766 139.041 234.741 139.041 231.085V173.351C139.041 169.695 142.066 166.67 145.722 166.67Z" fill="#0062FF"/>
<path fill-rule="evenodd" clip-rule="evenodd" d="M207.049 227.555H157.383C154.42 227.555 152.025 229.95 152.025 232.912C152.025 235.875 154.42 238.27 157.383 238.27H207.049C210.012 238.27 212.407 235.875 212.407 232.912C212.407 230.013 210.012 227.555 207.049 227.555Z" fill="#50BDD9"/>
<path fill-rule="evenodd" clip-rule="evenodd" d="M207.049 227.555H157.382C154.798 227.555 152.592 229.446 152.088 231.904C152.529 234.362 154.735 236.253 157.382 236.253H207.049C209.633 236.253 211.839 234.362 212.343 231.904C211.902 229.446 209.696 227.555 207.049 227.555Z" fill="#50BDD9"/>
<path fill-rule="evenodd" clip-rule="evenodd" d="M148.748 166.67H215.748C218.773 166.67 221.231 169.128 221.231 172.153V219.866C221.231 222.891 218.773 225.35 215.748 225.35H148.748C145.723 225.35 143.265 222.891 143.265 219.866V172.153C143.202 169.191 145.723 166.67 148.748 166.67Z" fill="#50BDD9"/>
<path fill-rule="evenodd" clip-rule="evenodd" d="M154.61 185.389H209.823C211.272 185.389 212.407 184.192 212.407 182.805V177.259C212.407 175.809 211.209 174.675 209.823 174.675H154.61C153.16 174.675 152.025 175.872 152.025 177.259V182.805C152.025 184.192 153.223 185.389 154.61 185.389Z" fill="#50BDD9"/>
<path fill-rule="evenodd" clip-rule="evenodd" d="M212.407 181.04V177.259C212.407 175.809 211.209 174.675 209.823 174.675H154.61C153.16 174.675 152.025 175.872 152.025 177.259V181.04C152.025 182.49 153.223 183.625 154.61 183.625H209.823C211.272 183.625 212.407 182.427 212.407 181.04Z" fill="#0142D3"/>
<path fill-rule="evenodd" clip-rule="evenodd" d="M156.122 188.919C157.571 188.919 158.706 190.053 158.706 191.503C158.706 192.953 157.571 194.087 156.122 194.087C154.672 194.087 153.538 192.953 153.538 191.503C153.475 190.116 154.672 188.919 156.122 188.919Z" fill="#50BDD9"/>
<path fill-rule="evenodd" clip-rule="evenodd" d="M156.121 188.919C157.382 188.919 158.453 189.801 158.705 190.999C158.453 192.196 157.445 193.079 156.121 193.079C154.861 193.079 153.789 192.196 153.537 190.999C153.789 189.864 154.861 188.919 156.121 188.919Z" fill="#0142D3"/>
<path fill-rule="evenodd" clip-rule="evenodd" d="M169.168 188.919C170.618 188.919 171.752 190.053 171.752 191.503C171.752 192.953 170.618 194.087 169.168 194.087C167.719 194.087 166.584 192.953 166.584 191.503C166.584 190.116 167.719 188.919 169.168 188.919Z" fill="#50BDD9"/>
<path fill-rule="evenodd" clip-rule="evenodd" d="M169.168 188.919C170.429 188.919 171.5 189.801 171.752 190.999C171.5 192.196 170.492 193.079 169.168 193.079C167.908 193.079 166.836 192.196 166.584 190.999C166.836 189.864 167.908 188.919 169.168 188.919Z" fill="#0142D3"/>
<path fill-rule="evenodd" clip-rule="evenodd" d="M182.215 188.919C183.665 188.919 184.799 190.053 184.799 191.503C184.799 192.953 183.665 194.087 182.215 194.087C180.765 194.087 179.631 192.953 179.631 191.503C179.631 190.116 180.828 188.919 182.215 188.919Z" fill="#50BDD9"/>
<path fill-rule="evenodd" clip-rule="evenodd" d="M182.215 188.919C183.476 188.919 184.547 189.801 184.799 190.999C184.547 192.196 183.539 193.079 182.215 193.079C180.954 193.079 179.883 192.196 179.631 190.999C179.883 189.864 180.954 188.919 182.215 188.919Z" fill="#0142D3"/>
<path fill-rule="evenodd" clip-rule="evenodd" d="M195.325 188.919C196.774 188.919 197.909 190.053 197.909 191.503C197.909 192.953 196.774 194.087 195.325 194.087C193.875 194.087 192.741 192.953 192.741 191.503C192.678 190.116 193.875 188.919 195.325 188.919Z" fill="#50BDD9"/>
<path fill-rule="evenodd" clip-rule="evenodd" d="M195.326 188.919C196.587 188.919 197.658 189.801 197.911 190.999C197.658 192.196 196.65 193.079 195.326 193.079C194.066 193.079 192.994 192.196 192.742 190.999C192.994 189.864 194.066 188.919 195.326 188.919Z" fill="#0142D3"/>
<path fill-rule="evenodd" clip-rule="evenodd" d="M208.373 188.919C209.823 188.919 210.957 190.053 210.957 191.503C210.957 192.953 209.823 194.087 208.373 194.087C206.924 194.087 205.789 192.953 205.789 191.503C205.789 190.116 206.924 188.919 208.373 188.919Z" fill="#50BDD9"/>
<path fill-rule="evenodd" clip-rule="evenodd" d="M208.373 188.919C209.634 188.919 210.705 189.801 210.957 190.999C210.705 192.196 209.697 193.079 208.373 193.079C207.113 193.079 206.041 192.196 205.789 190.999C206.041 189.864 207.113 188.919 208.373 188.919Z" fill="#0142D3"/>
<path fill-rule="evenodd" clip-rule="evenodd" d="M182.217 141.079H127.508C127.508 110.888 152.026 86.3698 182.217 86.3698C212.407 86.3698 236.926 110.888 236.926 141.079H182.217Z" fill="#50BDD9"/>
<path fill-rule="evenodd" clip-rule="evenodd" d="M126.814 150.597H237.682C240.644 150.597 243.039 148.202 243.039 145.24C243.039 142.278 240.644 139.883 237.682 139.883H126.814C123.852 139.883 121.457 142.278 121.457 145.24C121.457 148.202 123.852 150.597 126.814 150.597Z" fill="#0062FF"/>
<path fill-rule="evenodd" clip-rule="evenodd" d="M126.814 150.597H130.596C127.634 150.597 125.239 148.202 125.239 145.24C125.239 142.278 127.634 139.883 130.596 139.883H126.814C123.852 139.883 121.457 142.278 121.457 145.24C121.457 148.202 123.852 150.597 126.814 150.597Z" fill="#50BDD9"/>
<path fill-rule="evenodd" clip-rule="evenodd" d="M158.581 104.145L168.981 114.545C170.052 115.616 171.817 115.616 172.888 114.545C173.96 113.473 173.96 111.708 172.888 110.637L162.489 100.237C161.417 99.1656 159.652 99.1656 158.581 100.237C157.509 101.309 157.509 103.073 158.581 104.145Z" fill="#0142D3"/>
<path fill-rule="evenodd" clip-rule="evenodd" d="M168.918 100.237L158.581 110.637C157.509 111.708 157.509 113.473 158.581 114.545C159.652 115.616 161.417 115.616 162.489 114.545L172.888 104.145C173.96 103.073 173.96 101.309 172.888 100.237C171.754 99.1656 169.989 99.1656 168.918 100.237Z" fill="#0142D3"/>
<path fill-rule="evenodd" clip-rule="evenodd" d="M191.606 104.145L202.006 114.545C203.078 115.616 204.842 115.616 205.914 114.545C206.985 113.473 206.985 111.708 205.914 110.637L195.514 100.237C194.443 99.1656 192.678 99.1656 191.606 100.237C190.535 101.309 190.535 103.073 191.606 104.145Z" fill="#0142D3"/>
<path fill-rule="evenodd" clip-rule="evenodd" d="M202.006 100.237L191.606 110.637C190.535 111.708 190.535 113.473 191.606 114.545C192.678 115.616 194.443 115.616 195.514 114.545L205.914 104.145C206.985 103.073 206.985 101.309 205.914 100.237C204.842 99.1656 203.078 99.1656 202.006 100.237Z" fill="#0142D3"/>
<path fill-rule="evenodd" clip-rule="evenodd" d="M167.719 127.528H196.712C198.224 127.528 199.485 126.267 199.485 124.755C199.485 123.242 198.224 121.981 196.712 121.981H167.719C166.206 121.981 164.945 123.242 164.945 124.755C165.008 126.33 166.206 127.528 167.719 127.528Z" fill="#0142D3"/>
<path fill-rule="evenodd" clip-rule="evenodd" d="M168.16 125.197V133.012C168.16 135.975 170.555 138.37 173.518 138.37C176.48 138.37 178.875 135.975 178.875 133.012V125.197H168.16Z" fill="#0142D3"/>
<path fill-rule="evenodd" clip-rule="evenodd" d="M131.29 139.882C131.794 116.436 147.047 96.5815 168.161 89.2702C172.51 87.3794 177.174 86.3079 182.028 86.3079C152.278 86.4339 128.138 110.259 127.508 139.882H131.29Z" fill="#50BDD9"/>
<path fill-rule="evenodd" clip-rule="evenodd" d="M233.142 139.882C232.638 116.436 217.385 96.5815 196.271 89.2702C191.922 87.3794 187.258 86.3079 182.404 86.3079C212.154 86.4339 236.294 110.259 236.924 139.882H233.142Z" fill="#50BDD9"/>
<path fill-rule="evenodd" clip-rule="evenodd" d="M237.68 150.597H233.898C236.861 150.597 239.256 148.202 239.256 145.24C239.256 142.278 236.861 139.883 233.898 139.883H237.68C240.643 139.883 243.038 142.278 243.038 145.24C243.038 148.202 240.579 150.597 237.68 150.597Z" fill="#50BDD9"/>
<path fill-rule="evenodd" clip-rule="evenodd" d="M131.1 228.059C131.1 239.026 139.987 247.913 150.954 247.913C161.921 247.913 170.808 239.026 170.808 228.059C170.808 217.092 161.921 208.205 150.954 208.205C139.987 208.205 131.1 217.092 131.1 228.059Z" fill="#3A85FF"/>
<path fill-rule="evenodd" clip-rule="evenodd" d="M169.547 221C166.711 213.563 159.463 208.269 151.017 208.269C142.571 208.269 135.323 213.563 132.486 221C135.323 228.438 142.571 233.732 151.017 233.732C159.463 233.732 166.648 228.438 169.547 221Z" fill="#0062FF"/>
<path fill-rule="evenodd" clip-rule="evenodd" d="M143.074 214.508C145.28 214.508 147.045 216.273 147.045 218.479C147.045 220.685 145.28 222.45 143.074 222.45C140.868 222.45 139.104 220.685 139.104 218.479C139.104 216.273 140.868 214.508 143.074 214.508Z" fill="#50BDD9"/>
<path fill-rule="evenodd" clip-rule="evenodd" d="M193.623 228.059C193.623 239.026 202.51 247.913 213.477 247.913C224.444 247.913 233.331 239.026 233.331 228.059C233.331 217.092 224.444 208.205 213.477 208.205C202.51 208.205 193.623 217.092 193.623 228.059Z" fill="#3A85FF"/>
<path fill-rule="evenodd" clip-rule="evenodd" d="M232.008 221C229.172 213.563 221.924 208.269 213.478 208.269C205.032 208.269 197.784 213.563 194.947 221C197.784 228.438 205.032 233.732 213.478 233.732C221.924 233.732 229.172 228.438 232.008 221Z" fill="#0062FF"/>
<path fill-rule="evenodd" clip-rule="evenodd" d="M205.6 214.508C207.806 214.508 209.571 216.273 209.571 218.479C209.571 220.685 207.806 222.45 205.6 222.45C203.394 222.45 201.629 220.685 201.629 218.479C201.629 216.273 203.394 214.508 205.6 214.508Z" fill="#50BDD9"/>
<path d="M116.455 66C105.988 66 97.8363 62.807 92 56.4209L99.5174 46.9376C103.958 51.5994 109.572 53.9303 116.36 53.9303C119.976 53.9303 122.831 53.0363 124.924 51.2482C127.081 49.3962 128.159 47.1292 128.159 44.447C128.159 41.5733 127.144 39.2743 125.114 37.5501C123.084 35.8258 120.293 34.9637 116.741 34.9637C111.475 34.9637 107.035 36.688 103.419 40.1364L93.9983 37.6459V0.957909H137.58V12.9318H107.51V28.5457C111.063 24.9695 115.726 23.1814 121.498 23.1814C127.144 23.1814 131.934 25.0653 135.867 28.8331C139.864 32.6009 141.862 37.6139 141.862 43.8723C141.862 50.6415 139.546 56.0377 134.916 60.061C130.285 64.0203 124.131 66 116.455 66Z" fill="#3A85FF"/>
<path d="M189.478 61.1147C185.418 64.3716 180.502 66 174.729 66C168.956 66 164.008 64.3716 159.884 61.1147C155.824 57.7939 152.906 53.7068 151.13 48.8534C149.354 44 148.466 38.6996 148.466 32.9521C148.466 27.2046 149.354 21.9042 151.13 17.0508C152.906 12.1974 155.824 8.14223 159.884 4.88534C164.008 1.62845 168.956 0 174.729 0C180.502 0 185.418 1.62845 189.478 4.88534C193.538 8.14223 196.456 12.1974 198.232 17.0508C200.072 21.9042 200.992 27.2046 200.992 32.9521C200.992 38.6996 200.072 44 198.232 48.8534C196.456 53.7068 193.538 57.7939 189.478 61.1147ZM165.213 48.1829C167.243 52.0145 170.415 53.9303 174.729 53.9303C179.043 53.9303 182.183 52.0145 184.149 48.1829C186.179 44.3512 187.194 39.2743 187.194 32.9521C187.194 26.6299 186.179 21.5849 184.149 17.8171C182.183 13.9855 179.043 12.0697 174.729 12.0697C170.415 12.0697 167.243 13.9855 165.213 17.8171C163.183 21.5849 162.168 26.6299 162.168 32.9521C162.168 39.2743 163.183 44.3512 165.213 48.1829Z" fill="#3A85FF"/>
<path d="M248.486 61.1147C244.426 64.3716 239.51 66 233.737 66C227.964 66 223.016 64.3716 218.892 61.1147C214.832 57.7939 211.914 53.7068 210.138 48.8534C208.362 44 207.474 38.6996 207.474 32.9521C207.474 27.2046 208.362 21.9042 210.138 17.0508C211.914 12.1974 214.832 8.14223 218.892 4.88534C223.016 1.62845 227.964 0 233.737 0C239.51 0 244.426 1.62845 248.486 4.88534C252.546 8.14223 255.464 12.1974 257.24 17.0508C259.08 21.9042 260 27.2046 260 32.9521C260 38.6996 259.08 44 257.24 48.8534C255.464 53.7068 252.546 57.7939 248.486 61.1147ZM224.221 48.1829C226.251 52.0145 229.423 53.9303 233.737 53.9303C238.051 53.9303 241.191 52.0145 243.157 48.1829C245.187 44.3512 246.202 39.2743 246.202 32.9521C246.202 26.6299 245.187 21.5849 243.157 17.8171C241.191 13.9855 238.051 12.0697 233.737 12.0697C229.423 12.0697 226.251 13.9855 224.221 17.8171C222.191 21.5849 221.176 26.6299 221.176 32.9521C221.176 39.2743 222.191 44.3512 224.221 48.1829Z" fill="#3A85FF"/>
</svg>
