<svg width="238" height="184" viewBox="0 0 238 184" fill="none" xmlns="http://www.w3.org/2000/svg">
<g opacity="0.4">
<path d="M163.114 98.9868L99.2231 6.56957C97.4054 3.93472 93.7973 3.28111 91.1627 5.09896L2.49901 66.4018C-0.13558 68.2197 -0.789121 71.8281 1.02854 74.463L64.919 166.88C66.7366 169.515 70.3447 170.169 72.9793 168.351L161.643 107.048C164.271 105.23 164.931 101.622 163.114 98.9868Z" fill="#0142D3"/>
<path d="M64.1667 154.318C62.8926 154.438 61.6151 154.162 60.4739 153.518C59.0139 152.685 57.9699 151.334 57.5235 149.721L27.819 41.3567C26.9012 38.0104 28.8785 34.5478 32.2177 33.6306L136.178 5.13336C139.524 4.21548 142.987 6.19306 143.904 9.53261L173.608 117.89C174.526 121.236 172.548 124.699 169.209 125.616L65.249 154.12C64.8887 154.216 64.526 154.284 64.1667 154.318ZM137.34 5.91951C137.042 5.94768 136.739 6.0036 136.433 6.08728L32.4855 34.5832C29.666 35.3556 27.9998 38.2759 28.7722 41.0957L58.4761 149.453C58.8513 150.819 59.7312 151.954 60.967 152.658C62.1953 153.355 63.6284 153.541 64.9947 153.166L168.949 124.669C171.768 123.897 173.434 120.977 172.662 118.157L142.951 9.79362C142.262 7.28049 139.854 5.68198 137.34 5.91951Z" fill="#001D6D"/>
<path opacity="0.2" d="M179.506 116.519L145.12 9.55869C144.14 6.51533 140.879 4.84047 137.829 5.81407L35.2165 38.8076C32.1734 39.788 30.4987 43.0492 31.4722 46.0994L65.858 153.059C66.8383 156.103 70.0992 157.778 73.1491 156.804L175.769 123.81C178.812 122.83 180.486 119.569 179.506 116.519Z" fill="#001D6D"/>
<path d="M171.984 121.536L69.371 154.53C66.328 155.51 63.0603 153.835 62.08 150.785L27.6942 43.8252C26.7139 40.7819 28.3886 37.5138 31.4384 36.5334L134.058 3.53991C137.101 2.5595 140.369 4.23437 141.349 7.28453L175.735 114.245C176.708 117.295 175.034 120.556 171.984 121.536Z" fill="#D6E4FE"/>
<path d="M55.8777 51.7582L42.6435 56.0134C41.071 56.5173 39.3826 55.6526 38.8789 54.0799C38.3751 52.5071 39.2397 50.8186 40.8123 50.3148L54.0465 46.0596C55.6191 45.5557 57.3074 46.4204 57.8111 47.9931C58.3217 49.5591 57.4571 51.2476 55.8777 51.7582Z" fill="#6FA3FF"/>
<path d="M60.2684 65.4008L47.0342 69.656C45.4616 70.1598 43.7733 69.2952 43.2695 67.7224C42.7657 66.1497 43.6303 64.4612 45.2029 63.9574L58.4371 59.7021C60.0097 59.1983 61.698 60.063 62.2018 61.6357C62.7056 63.2016 61.841 64.8901 60.2684 65.4008Z" fill="#6FA3FF"/>
<path d="M64.6521 79.0453L51.418 83.3005C49.8454 83.8044 48.1571 82.9397 47.6533 81.367C47.1495 79.7942 48.0141 78.1057 49.5867 77.6019L62.8209 73.3467C64.3934 72.8428 66.0818 73.7075 66.5855 75.2802C67.0893 76.853 66.2247 78.5347 64.6521 79.0453Z" fill="#6FA3FF"/>
<path d="M69.0369 92.6898L55.8027 96.9451C54.2301 97.4489 52.5418 96.5842 52.0381 95.0115C51.5343 93.4388 52.3989 91.7503 53.9714 91.2464L67.2057 86.9912C68.7782 86.4874 70.4666 87.352 70.9703 88.9248C71.4809 90.4975 70.6163 92.1792 69.0369 92.6898Z" fill="#6FA3FF"/>
<path d="M73.4275 106.334L60.1933 110.59C58.6208 111.093 56.9324 110.229 56.4287 108.656C55.9249 107.083 56.7895 105.395 58.3621 104.891L71.5963 100.636C73.1688 100.132 74.8571 100.997 75.3609 102.569C75.8647 104.142 75.0001 105.824 73.4275 106.334Z" fill="#6FA3FF"/>
<path d="M77.8113 119.977L64.5771 124.232C63.0045 124.736 61.3162 123.871 60.8125 122.299C60.3087 120.726 61.1733 119.037 62.7459 118.534L75.98 114.278C77.5526 113.774 79.2409 114.639 79.7447 116.212C80.2485 117.785 79.3839 119.466 77.8113 119.977Z" fill="#6FA3FF"/>
<path d="M82.1961 133.621L68.9619 137.877C67.3893 138.38 65.701 137.516 65.1972 135.943C64.6935 134.37 65.558 132.682 67.1306 132.178L80.3648 127.923C81.9374 127.419 83.6257 128.284 84.1295 129.856C84.6401 131.429 83.7755 133.118 82.1961 133.621Z" fill="#6FA3FF"/>
<path d="M104.805 132.642C104.24 132.825 103.641 132.512 103.457 131.954L72.291 35.016C72.1072 34.4509 72.4203 33.8518 72.9786 33.6679C73.5436 33.4841 74.1427 33.7973 74.3265 34.3556L105.492 131.294C105.676 131.859 105.363 132.465 104.805 132.642Z" fill="#EDF5FF"/>
<path d="M129.034 124.853C128.469 125.036 127.87 124.723 127.686 124.165L96.5268 27.2269C96.343 26.6618 96.6562 26.0627 97.2144 25.8789C97.7794 25.6951 98.3785 26.0082 98.5623 26.5665L129.728 123.504C129.905 124.07 129.599 124.669 129.034 124.853Z" fill="#EDF5FF"/>
<path d="M153.262 117.064C152.697 117.248 152.098 116.935 151.914 116.377L120.756 19.432C120.572 18.8669 120.885 18.2678 121.443 18.084C122.008 17.9001 122.607 18.2133 122.791 18.7716L153.957 115.716C154.141 116.281 153.827 116.881 153.262 117.064Z" fill="#EDF5FF"/>
<path d="M85.4237 44.3294L69.0852 49.5855C67.7781 50.0076 66.3757 49.2859 65.9536 47.9787L64.4287 43.2468C64.0066 41.9396 64.7282 40.5371 66.0353 40.115L82.3738 34.8589C83.6809 34.4368 85.0833 35.1585 85.5054 36.4657L87.0303 41.1975C87.4524 42.5115 86.7308 43.9141 85.4237 44.3294Z" fill="#0062FF"/>
<path d="M98.6707 55.1281L77.5735 61.9092C76.1099 62.379 74.5441 61.5756 74.0744 60.1118L72.7332 55.9383C72.2635 54.4745 73.0668 52.9085 74.5305 52.4387L95.6276 45.6576C97.0913 45.1878 98.657 45.9912 99.1268 47.455L100.468 51.6285C100.938 53.0923 100.128 54.6583 98.6707 55.1281Z" fill="#0062FF"/>
<path d="M103.355 68.6771L87.35 73.8243C86.0565 74.2396 84.6678 73.5315 84.2525 72.2311L82.714 67.4516C82.2987 66.158 83.0067 64.7691 84.307 64.3538L100.312 59.2066C101.605 58.7913 102.994 59.4994 103.409 60.7998L104.948 65.5793C105.363 66.8729 104.655 68.2618 103.355 68.6771Z" fill="#0062FF"/>
<path d="M117.467 79.1941L94.9132 86.445C93.4087 86.9284 91.7885 86.0978 91.3051 84.5931L90.0185 80.583C89.5351 79.0783 90.3657 77.4579 91.8702 76.9745L114.424 69.7236C115.929 69.2402 117.549 70.0708 118.032 71.5755L119.319 75.5856C119.802 77.0903 118.972 78.7107 117.467 79.1941Z" fill="#0062FF"/>
<path d="M131.79 89.6456L103.402 98.7757C101.734 99.3136 99.9437 98.3944 99.4059 96.7196L98.3099 93.3018C97.7721 91.6337 98.6911 89.8431 100.366 89.3052L128.754 80.1751C130.422 79.6373 132.212 80.5564 132.75 82.2313L133.846 85.6491C134.377 87.3172 133.458 89.1078 131.79 89.6456Z" fill="#0062FF"/>
<path d="M143.288 101.001L122.531 107.673C121.081 108.143 119.522 107.34 119.052 105.89L117.698 101.682C117.228 100.232 118.031 98.6727 119.481 98.203L140.238 91.5307C141.688 91.0609 143.247 91.8643 143.717 93.3145L145.072 97.5221C145.541 98.9723 144.745 100.531 143.288 101.001Z" fill="#F64E4E"/>
<path d="M133.764 27.2609L110.488 34.7433C108.956 35.2335 107.322 34.3961 106.832 32.8642L105.566 28.9289C105.076 27.3971 105.913 25.763 107.445 25.2728L130.721 17.7904C132.252 17.3002 133.886 18.1376 134.376 19.6695L135.643 23.6048C136.14 25.1367 135.295 26.7707 133.764 27.2609Z" fill="#0142D3"/>
<path d="M120.699 29.4993L116.954 27.5725L117.88 25.7683L119.827 26.7691L121.978 22.5684L123.782 23.4943L120.699 29.4993Z" fill="white"/>
<path d="M42.9933 12.6364C46.4824 12.6364 49.3109 9.80765 49.3109 6.3182C49.3109 2.82876 46.4824 0 42.9933 0C39.5042 0 36.6758 2.82876 36.6758 6.3182C36.6758 9.80765 39.5042 12.6364 42.9933 12.6364Z" fill="#F64E4E"/>
<path d="M173.301 15.4336C175.564 15.4336 177.399 13.5986 177.399 11.335C177.399 9.07136 175.564 7.23633 173.301 7.23633C171.037 7.23633 169.202 9.07136 169.202 11.335C169.202 13.5986 171.037 15.4336 173.301 15.4336Z" fill="#8A3FFC"/>
<path opacity="0.2" d="M204.197 141.563C211.593 127.708 206.868 110.619 193.708 102.455C194.521 101.021 195.755 98.9438 195.755 98.9438L199.986 101.301L202.743 95.8042L185.141 85.4227L182.516 92.0356L188.708 94.8951L186.889 99.3261C173.572 95.1625 158.761 100.895 151.943 113.656C144.235 128.084 149.686 146.031 164.113 153.737C178.541 161.443 196.489 155.991 204.197 141.563Z" fill="#001D6D"/>
<path d="M201.098 95.9796L198.01 97.6685L180.205 89.2117L183.629 86.7147L192.091 90.1288L201.098 95.9796Z" fill="#022D9A"/>
<path d="M189.816 89.5684L186.448 92.2127L185.648 94.3032L188.002 94.0047L189.816 89.5684Z" fill="#0142D3"/>
<path d="M194.128 98.423C194.291 97.9917 196.874 93.6188 196.874 93.6188L189.817 89.5689L187.228 95.8855L193.806 98.6752" fill="#0142D3"/>
<path d="M172.415 152.673C188.658 154.629 203.411 143.047 205.368 126.805C207.326 110.563 195.745 95.8108 179.503 93.8553C163.261 91.8997 148.507 103.481 146.55 119.723C144.593 135.965 156.173 150.717 172.415 152.673Z" fill="#0142D3"/>
<path d="M175.638 151.698C191.88 153.654 206.634 142.072 208.591 125.83C210.548 109.588 198.968 94.8362 182.726 92.8807C166.483 90.9251 151.73 102.507 149.773 118.749C147.815 134.991 159.396 149.743 175.638 151.698Z" fill="#0142D3"/>
<path d="M176.425 145.175C189.065 146.696 200.546 137.684 202.069 125.044C203.592 112.404 194.58 100.924 181.941 99.402C169.301 97.8802 157.819 106.893 156.296 119.533C154.773 132.173 163.785 143.653 176.425 145.175Z" fill="white"/>
<path d="M186.713 108.19C186.39 108.02 186.269 107.612 186.439 107.289L188.268 103.863C188.437 103.539 188.845 103.418 189.169 103.588C189.492 103.758 189.613 104.165 189.443 104.489L187.614 107.915C187.439 108.243 187.037 108.36 186.713 108.19Z" fill="#001D6D"/>
<path d="M183.827 137.577C184.174 137.469 184.548 137.669 184.656 138.017L185.785 141.726C185.894 142.074 185.694 142.447 185.346 142.556C184.998 142.664 184.625 142.464 184.516 142.117L183.387 138.407C183.279 138.059 183.479 137.686 183.827 137.577Z" fill="#001D6D"/>
<path d="M195.644 134.56L175.819 121.864C175.436 121.619 175.328 121.107 175.568 120.728C175.813 120.346 176.325 120.238 176.704 120.477L196.528 133.173C196.911 133.418 197.019 133.93 196.779 134.308C196.534 134.691 196.026 134.805 195.644 134.56Z" fill="#001D6D"/>
<path d="M171.655 136.385C171.979 136.555 172.099 136.962 171.929 137.286L170.101 140.712C169.931 141.036 169.523 141.156 169.2 140.987C168.876 140.817 168.755 140.409 168.925 140.086L170.754 136.659C170.924 136.336 171.331 136.215 171.655 136.385Z" fill="#001D6D"/>
<path d="M163.892 126.937C164 127.284 163.8 127.658 163.452 127.766L159.742 128.895C159.395 129.004 159.021 128.804 158.913 128.456C158.804 128.108 159.005 127.735 159.352 127.626L163.062 126.497C163.415 126.385 163.788 126.585 163.892 126.937Z" fill="#001D6D"/>
<path d="M165.092 114.759C164.922 115.083 164.515 115.203 164.191 115.034L160.765 113.205C160.441 113.035 160.32 112.628 160.49 112.304C160.66 111.98 161.067 111.86 161.391 112.03L164.817 113.858C165.136 114.032 165.262 114.435 165.092 114.759Z" fill="#001D6D"/>
<path d="M174.541 106.995C174.194 107.104 173.82 106.904 173.712 106.556L172.583 102.846C172.475 102.499 172.675 102.125 173.022 102.017C173.37 101.908 173.743 102.109 173.852 102.456L174.981 106.166C175.089 106.513 174.893 106.892 174.541 106.995Z" fill="#001D6D"/>
<path d="M199.556 118.682L194.256 119.527C193.499 114.791 190.608 110.447 186.058 108.013L188.582 103.279C194.678 106.535 198.545 112.344 199.556 118.682Z" fill="#0062FF"/>
<path d="M197.316 132.037L192.583 129.513C194.285 126.334 194.789 122.831 194.256 119.527L199.556 118.682C200.265 123.102 199.589 127.787 197.316 132.037Z" fill="#FFC400"/>
<path d="M178.886 124.75C180.245 124.914 181.479 123.945 181.643 122.586C181.807 121.227 180.838 119.993 179.479 119.829C178.12 119.666 176.886 120.635 176.722 121.994C176.559 123.352 177.527 124.586 178.886 124.75Z" fill="white"/>
<path d="M196.762 132.61L175.998 121.518C175.597 121.305 175.444 120.802 175.661 120.406C175.875 120.005 176.378 119.852 176.773 120.07L197.538 131.162C197.939 131.375 198.092 131.878 197.874 132.274C197.666 132.671 197.163 132.823 196.762 132.61Z" fill="white"/>
<path d="M196.873 93.6194L189.816 89.5696L183.628 86.7154L186.259 80.0983L203.855 90.484L201.097 95.9803L196.873 93.6194Z" fill="#0062FF"/>
<path d="M186.259 80.0977L181.649 84.1926L180.205 89.2118L183.629 86.7147L186.259 80.0977Z" fill="#022D9A"/>
<path d="M179.361 76.4251C177.043 76.4929 175.457 74.6873 175.604 72.4266C175.536 70.1083 177.127 68.4651 179.445 68.3973C181.764 68.3294 183.134 70.0774 183.202 72.3957C183.27 74.7141 181.679 76.3572 179.361 76.4251Z" fill="#FF7C7C"/>
<path d="M177.117 65.9317L173.816 44.8049L184.649 44.7219L181.696 66.0106L177.117 65.9317Z" fill="#FF7C7C"/>
<path d="M208.76 100.207C209.621 99.9248 210.036 99.1535 209.797 98.2793C209.558 97.405 208.824 97.0106 207.963 97.2933C207.102 97.5759 206.687 98.3472 206.926 99.2214C207.165 100.096 207.899 100.49 208.76 100.207ZM211.758 98.5883L223.455 96.1782L222.021 90.9326L211.28 96.8397L211.758 98.5883Z" fill="#FFC400"/>
<path d="M194.904 83.2133C197.642 84.1564 200.244 82.6196 201.187 79.881C202.218 76.9384 200.885 74.4251 197.943 73.3938C195.204 72.4507 192.691 73.7836 191.66 76.7261C190.716 79.4648 191.961 82.182 194.904 83.2133Z" fill="#FFC400"/>
<path d="M201.889 70.9875L215.221 45.7734L200.828 40.997L196.412 69.1013L201.889 70.9875Z" fill="#FFC400"/>
<path d="M229.576 65.1872L211.479 72.3543L218.011 75.0801L206.446 84.9729L227.394 76.5424L221.345 73.773L229.576 65.1872Z" fill="#FF7C7C"/>
<path d="M164.785 70.3574L165.356 84.0513L168.722 80.2091L172.659 90.0608L171.754 74.1276L168.604 77.5715L164.785 70.3574Z" fill="#FFC400"/>
</g>
</svg>
