<svg width="202" height="146" viewBox="0 0 202 146" fill="none" xmlns="http://www.w3.org/2000/svg">
    <path d="M121.717 22.3116C123.918 22.3116 125.703 19.5308 125.703 16.1004C125.703 12.67 123.918 9.88916 121.717 9.88916C119.515 9.88916 117.73 12.67 117.73 16.1004C117.73 19.5308 119.515 22.3116 121.717 22.3116Z"
          fill="#1F2257"/>
    <path d="M175.091 138.367H134.688L135.498 47.4937L173.47 57.5531C179.01 59.0384 182.726 64.3045 182.118 70.0431L175.091 138.367Z"
          fill="white"/>
    <path d="M105.159 142.013H140.631L139.82 49.4519L105.768 61.5368C98.6733 64.6424 96.2409 68.7607 97.0517 74.6344L105.159 142.013Z"
          fill="white"/>
    <path d="M69.4206 130.265C66.11 138.502 74.1501 144.511 83.0687 144.038H83.6092C90.0279 143.701 93.7439 142.485 95.9735 136.544L126.378 56.6083L110.567 60.8616C98.7437 60.8616 92.1899 74.5668 89.7576 80.4405L69.4206 130.265Z"
          fill="white"/>
    <path fill-rule="evenodd" clip-rule="evenodd"
          d="M3.27425 95.8708C0.968509 95.8708 -0.568649 98.1005 0.19993 100.253L16.0326 142.387L16.1095 142.541C16.5707 143.848 17.8004 144.694 19.1838 144.694H132.857C133.395 144.694 133.779 144.156 133.625 143.617L132.396 140.311C132.242 140.004 132.011 139.773 131.627 139.773H95.1194C94.812 139.773 94.5046 139.542 94.3508 139.235L78.8255 97.8699C78.3644 96.6397 77.1347 95.7939 75.7512 95.7939H3.27425V95.8708Z"
          fill="url(#paint0_linear)"/>
    <path fill-rule="evenodd" clip-rule="evenodd"
          d="M112.797 141L111.851 139.852L105.77 140.595L105.297 141.338C104.959 141 104.554 140.73 104.013 140.73C103.067 140.73 102.324 141.405 102.324 142.283C102.324 143.161 103.067 143.836 104.013 143.836C104.216 143.836 104.419 143.768 104.621 143.701L112.797 141Z"
          fill="#FBBCA7"/>
    <path d="M132.257 134.451L125.568 131.211C123.406 130.131 120.906 130.131 118.676 131.076L101.718 138.3C100.502 138.84 100.434 140.528 101.583 141.203L108.744 145.051H134.284C134.892 145.051 135.365 144.916 135.838 144.646L132.257 134.451Z"
          fill="#FBBCA7"/>
    <path d="M114.286 136.544L102.395 141.405" stroke="#BA735A" stroke-opacity="0.7" stroke-width="1.0303"
          stroke-linecap="round"/>
    <path fill-rule="evenodd" clip-rule="evenodd"
          d="M115.23 142.418L114.352 141.405L108.541 142.08L108.068 142.755C107.798 142.418 107.325 142.215 106.852 142.215C105.974 142.215 105.23 142.823 105.23 143.633C105.23 144.308 105.703 144.848 106.447 144.983H106.582C106.649 144.983 106.784 144.983 106.852 144.983C106.92 144.983 107.055 144.983 107.122 144.983H113.744V143.566H111.717L115.23 142.418Z"
          fill="#FBBCA7"/>
    <path d="M116.447 139.65L105.434 143.431" stroke="#BA735A" stroke-opacity="0.7" stroke-width="1.0303"
          stroke-linecap="round"/>
    <path d="M155.227 52.5574L174.55 121.691C175.091 123.446 174.077 122.974 172.321 123.446L134.012 131.345C132.458 131.751 131.444 133.236 131.647 134.856L132.593 142.823C132.795 144.443 134.147 145.658 135.836 145.658H184.685V145.726H189.685C197.86 145.726 201.711 141.202 201.711 131.345C201.711 131.345 199.752 113.724 198.198 103.53C196.441 92.3227 191.171 75.3769 191.171 75.3769C188.266 65.655 180.361 58.2285 170.496 55.933L155.227 52.5574Z"
          fill="white"/>
    <path d="M174.484 122.974C175.768 123.784 176.984 124.729 178.336 125.539" stroke="#86B6F8" stroke-width="1.0303"
          stroke-miterlimit="10" stroke-linecap="round" stroke-linejoin="round"/>
    <path d="M174.348 122.231C176.375 122.231 178.402 122.231 180.428 122.231" stroke="#86B6F8" stroke-width="1.0303"
          stroke-miterlimit="10" stroke-linecap="round" stroke-linejoin="round"/>
    <path d="M126.309 54.448L122.391 55.8658C122.391 55.8658 122.864 69.1659 135.431 69.5035C155.295 70.0436 155.227 52.4226 155.227 52.4226C155.227 52.4226 151.849 51.95 150.565 50.3972C149.281 48.8444 146.917 34.8016 146.917 34.8016L125.634 50.1272L126.309 54.448Z"
          fill="url(#paint1_linear)"/>
    <path d="M153.539 23.9994C153.674 28.3878 151.918 32.5736 148.675 35.6117L147.796 36.4219L145.567 42.2281C144.283 45.6037 141.445 48.2367 137.932 49.2494L130.162 51.5449C129.216 51.815 128.202 51.8825 127.189 51.6124L125.432 51.2073C124.622 51.0048 123.878 50.5322 123.405 49.8571C121.176 46.6164 120.095 42.6331 120.365 38.7174L120.973 29.8056L121.176 25.2822L120.973 20.8263C120.5 11.3069 129.013 3.88046 138.337 5.63581C146.918 7.18862 153.201 14.5476 153.404 23.2568L153.539 23.9994Z"
          fill="#FBB7A0"/>
    <path d="M153.673 23.6617C153.808 28.1175 152.119 32.776 148.943 35.8141L146.713 34.8689L147.254 36.9618C146.781 43.173 142.862 48.7766 137.052 51.0046C136.849 51.0721 135.903 51.4097 135.7 51.5447C132.592 52.5574 129.147 53.3676 125.498 52.0173C123.471 51.6797 118.134 46.0761 120.093 36.8943L120.769 31.8308C120.836 31.0881 120.904 29.2653 120.836 28.5226C120.566 26.1597 120.363 23.7967 120.228 21.3662L120.161 20.6911C119.688 10.9692 129.147 3.27263 138.538 5.163C146.849 6.78332 153.402 14.1423 153.605 22.8515L153.673 23.6617Z"
          fill="url(#paint2_linear)"/>
    <path d="M127.728 36.0841C126.984 36.4217 125.701 36.4892 125.701 36.4892C124.957 36.4892 124.214 36.2192 123.741 35.6791C123.133 35.0039 123.403 34.5988 124.011 33.9237C126.849 30.7506 126.849 28.05 126.849 28.05"
          stroke="#BA735A" stroke-width="1.0303" stroke-linecap="round"/>
    <path d="M132.594 39.3923C128.27 43.1056 124.554 41.5528 124.148 41.4853" stroke="#BA735A" stroke-width="1.0303"
          stroke-miterlimit="10" stroke-linecap="round" stroke-linejoin="round"/>
    <path d="M122.862 29.4002C123.459 29.4002 123.943 28.9165 123.943 28.32C123.943 27.7234 123.459 27.2397 122.862 27.2397C122.265 27.2397 121.781 27.7234 121.781 28.32C121.781 28.9165 122.265 29.4002 122.862 29.4002Z"
          fill="#212458"/>
    <path d="M133.202 30.0083C133.799 30.0083 134.283 29.5247 134.283 28.9281C134.283 28.3315 133.799 27.8479 133.202 27.8479C132.605 27.8479 132.121 28.3315 132.121 28.9281C132.121 29.5247 132.605 30.0083 133.202 30.0083Z"
          fill="#212458"/>
    <path d="M137.05 26.2269C135.766 25.4843 134.348 25.2142 132.861 25.2817L131.848 25.3492" stroke="#1E2267"
          stroke-width="1.0303" stroke-linecap="round"/>
    <path d="M125.634 25.4843C124.553 24.9442 123.337 24.8092 122.189 25.0792L121.445 25.2818" stroke="#1E2267"
          stroke-width="1.0303" stroke-linecap="round"/>
    <path d="M47.114 123.593C49.2783 123.593 51.0328 121.84 51.0328 119.678C51.0328 117.515 49.2783 115.762 47.114 115.762C44.9498 115.762 43.1953 117.515 43.1953 119.678C43.1953 121.84 44.9498 123.593 47.114 123.593Z"
          fill="#3A88F4"/>
    <path opacity="0.49" d="M126.309 52.4228C132.119 53.7056 138.673 51.0726 144.078 44.9288" stroke="#BA735A"
          stroke-width="1.0303" stroke-miterlimit="10" stroke-linecap="round" stroke-linejoin="round"/>
    <path opacity="0.49" d="M126.309 52.3549L126.849 57.0133" stroke="#BA735A" stroke-width="1.0303"
          stroke-miterlimit="10" stroke-linecap="round" stroke-linejoin="round"/>
    <path d="M99.8906 85.5038L102.593 120.138" stroke="#86B6F8" stroke-width="1.0303" stroke-miterlimit="10"
          stroke-linecap="round" stroke-linejoin="round"/>
    <path d="M164.008 85.6388L173.602 117.978" stroke="#86B6F8" stroke-width="1.0303" stroke-miterlimit="10"
          stroke-linecap="round" stroke-linejoin="round"/>
    <path d="M134.957 69.5708C154.821 70.1109 155.159 52.8275 155.159 52.8275" stroke="#86B6F8" stroke-width="1.0303"
          stroke-linecap="round" stroke-linejoin="round"/>
    <path d="M135.158 15.6277C132.455 16.1003 121.915 18.3282 117.726 13.1297C113.132 7.39106 115.159 2.26004 121.375 0.369669C127.591 -1.52071 130.091 4.48799 133.469 3.81285C136.847 3.13772 146.779 -0.305465 152.252 8.13371C157.725 16.5729 153.063 30.0756 153.063 30.0756L145.698 23.7293C145.698 23.7293 147.455 17.9231 143.604 16.3703C139.82 14.885 137.793 15.1551 135.158 15.6277Z"
          fill="#1F2257"/>
    <path fill-rule="evenodd" clip-rule="evenodd"
          d="M154.552 16.8427C152.728 9.41623 145.431 7.52586 140.161 6.78321C140.026 6.78321 139.891 6.7157 139.688 6.7157L138.066 15.0874C138.877 15.6275 142.999 14.6823 142.391 20.3534C142.188 22.1087 140.837 23.324 142.526 27.2398C142.796 27.9149 143.472 28.59 143.809 27.9824C146.146 24.0504 152.231 26.3243 148.368 33.1251C147.573 34.5254 147.189 36.217 147.492 37.7987C147.904 39.9572 148.336 42.6328 148.336 42.6328C148.336 42.6328 152.728 35.2063 154.687 22.5138C155.025 20.6235 155.025 18.6656 154.552 16.8427Z"
          fill="#1F2257"/>
    <g clip-path="url(#clip0)">
        <path d="M49.5689 84.8448C54.542 82.7369 56.8674 76.99 54.763 72.0088C52.6585 67.0276 46.921 64.6983 41.9479 66.8062C36.9748 68.9141 34.6494 74.661 36.7538 79.6422C38.8583 84.6235 44.5958 86.9527 49.5689 84.8448Z"
              fill="#EEEBE6" fill-opacity="0.4"/>
        <path d="M29.7711 65.2712L19.3302 69.8362C17.0929 70.8322 14.4412 69.7532 13.4468 67.5122L8.88927 56.9712C7.8949 54.7302 8.97214 52.0742 11.2095 51.0782L21.7333 46.5132C23.9706 45.5172 26.6223 46.5962 27.6166 48.8372L32.1742 59.3782C33.0857 61.7022 32.0084 64.2752 29.7711 65.2712Z"
              fill="#FFBC57"/>
        <g filter="url(#filter0_b)">
            <path d="M36.8779 58.6989C44.9697 55.2691 48.7535 45.9182 45.3293 37.8132C41.905 29.7081 32.5695 25.9181 24.4777 29.348C16.3859 32.7778 12.6021 42.1287 16.0263 50.2337C19.4505 58.3388 28.7861 62.1288 36.8779 58.6989Z"
                  fill="#EEEBE6" fill-opacity="0.4"/>
        </g>
        <path d="M57.524 75.6096C60.9799 74.1448 62.5959 70.1512 61.1335 66.6896C59.6711 63.2281 55.684 61.6094 52.2281 63.0743C48.7722 64.5391 47.1562 68.5327 48.6187 71.9942C50.0811 75.4558 54.0682 77.0744 57.524 75.6096Z"
              fill="#FF6774"/>
        <path d="M38.969 42.0316C43.5265 52.1577 55.5419 56.6397 65.7342 52.0747C75.9265 47.5096 80.5669 35.4746 76.0094 25.3486C71.5347 15.1396 59.5194 10.6576 49.327 15.3056C39.0518 19.8706 34.4114 31.9056 38.969 42.0316Z"
              fill="url(#paint3_linear)"/>
        <path d="M54.3368 28.9671C54.9523 27.3871 54.1725 25.6064 52.595 24.9899C51.0175 24.3733 49.2398 25.1544 48.6242 26.7345C48.0087 28.3146 48.7886 30.0952 50.366 30.7118C51.9435 31.3283 53.7213 30.5472 54.3368 28.9671Z"
              fill="#668DFF"/>
        <path fill-rule="evenodd" clip-rule="evenodd"
              d="M66.6456 39.458C66.6456 41.118 65.3198 42.529 63.6625 42.612C62.0052 42.612 60.5965 41.284 60.5137 39.624C60.5137 37.964 61.8395 36.553 63.4968 36.47C65.2369 36.387 66.6456 37.715 66.6456 39.458Z"
              fill="#668DFF"/>
        <path fill-rule="evenodd" clip-rule="evenodd"
              d="M50.4874 40.8689C49.8245 40.2049 49.8245 39.1259 50.4874 38.4619L62.2542 26.4268C62.9171 25.7628 63.9943 25.7628 64.6572 26.4268C65.3202 27.0908 65.3202 28.1698 64.6572 28.8338L52.8905 40.8689C52.2276 41.5329 51.1503 41.5329 50.4874 40.8689Z"
              fill="#668DFF"/>
        <path d="M54.3368 28.9671C54.9523 27.3871 54.1725 25.6064 52.595 24.9899C51.0175 24.3733 49.2398 25.1544 48.6242 26.7345C48.0087 28.3146 48.7886 30.0952 50.366 30.7118C51.9435 31.3283 53.7213 30.5472 54.3368 28.9671Z"
              fill="white"/>
        <path fill-rule="evenodd" clip-rule="evenodd"
              d="M66.6456 39.458C66.6456 41.118 65.3198 42.529 63.6625 42.612C62.0052 42.612 60.5965 41.284 60.5137 39.624C60.5137 37.964 61.8395 36.553 63.4968 36.47C65.2369 36.387 66.6456 37.715 66.6456 39.458Z"
              fill="white"/>
        <path fill-rule="evenodd" clip-rule="evenodd"
              d="M50.4874 40.8689C49.8245 40.2049 49.8245 39.1259 50.4874 38.4619L62.2542 26.4268C62.9171 25.7628 63.9943 25.7628 64.6572 26.4268C65.3202 27.0908 65.3202 28.1698 64.6572 28.8338L52.8905 40.8689C52.2276 41.5329 51.1503 41.5329 50.4874 40.8689Z"
              fill="white"/>
    </g>
    <defs>
        <filter id="filter0_b" x="12.7031" y="26.0233" width="35.9482" height="36.0003" filterUnits="userSpaceOnUse"
                color-interpolation-filters="sRGB">
            <feFlood flood-opacity="0" result="BackgroundImageFix"/>
            <feGaussianBlur in="BackgroundImage" stdDeviation="1.0303"/>
            <feComposite in2="SourceAlpha" operator="in" result="effect1_backgroundBlur"/>
            <feBlend mode="normal" in="SourceGraphic" in2="effect1_backgroundBlur" result="shape"/>
        </filter>
        <linearGradient id="paint0_linear" x1="56.015" y1="162.193" x2="69.1753" y2="112.726"
                        gradientUnits="userSpaceOnUse">
            <stop stop-color="#3B83F2"/>
            <stop offset="1" stop-color="#319FF9"/>
        </linearGradient>
        <linearGradient id="paint1_linear" x1="137.292" y1="51.2798" x2="156.283" y2="78.0987"
                        gradientUnits="userSpaceOnUse">
            <stop offset="0.0966771" stop-color="#FAB199"/>
            <stop offset="1" stop-color="#FAC2AF"/>
        </linearGradient>
        <linearGradient id="paint2_linear" x1="144.19" y1="32.506" x2="123.766" y2="25.7557"
                        gradientUnits="userSpaceOnUse">
            <stop stop-color="#FAAD94"/>
            <stop offset="1" stop-color="#FAC2AF"/>
        </linearGradient>
        <linearGradient id="paint3_linear" x1="37.247" y1="33.6658" x2="77.8466" y2="33.6658"
                        gradientUnits="userSpaceOnUse">
            <stop stop-color="#3B83F2"/>
            <stop offset="1" stop-color="#319FF9"/>
        </linearGradient>
        <clipPath id="clip0">
            <rect width="69.2747" height="72.1272" fill="white" transform="translate(8.55664 13.4792)"/>
        </clipPath>
    </defs>
</svg>
